<svg width="46" height="46" viewBox="0 0 46 46" fill="none" xmlns="http://www.w3.org/2000/svg">
<path d="M23 46C35.7025 46 46 35.7025 46 23C46 10.2975 35.7025 0 23 0C10.2975 0 0 10.2975 0 23C0 35.7025 10.2975 46 23 46Z" fill="url(#paint0_linear)"/>
<path d="M12.6669 21.3572H11.0772C10.6382 21.3572 10.2822 21.7131 10.2822 22.1521C10.2822 22.5911 10.6381 22.9471 11.0772 22.9471H12.6669C13.1059 22.9471 13.4619 22.5912 13.4619 22.1521C13.4619 21.7131 13.106 21.3572 12.6669 21.3572ZM34.9244 21.3572H33.3346C32.8956 21.3572 32.5397 21.7131 32.5397 22.1521C32.5397 22.5911 32.8955 22.9471 33.3346 22.9471H34.9244C35.3634 22.9471 35.7193 22.5912 35.7193 22.1521C35.7193 21.7131 35.3634 21.3572 34.9244 21.3572ZM17.1455 13.6002C17.3657 13.9816 17.8523 14.1101 18.2313 13.8911C18.6115 13.6716 18.7418 13.1855 18.5222 12.8052L17.7273 11.4284C17.5078 11.0482 17.0217 10.9179 16.6415 11.1375C16.2612 11.357 16.131 11.8431 16.3505 12.2233L17.1455 13.6002ZM14.4489 16.2968L13.0721 15.5018C12.6918 15.2822 12.2057 15.4126 11.9862 15.7927C11.7667 16.173 11.897 16.6591 12.2771 16.8786L13.654 17.6735C14.0328 17.8923 14.5196 17.764 14.7398 17.3826C14.9594 17.0025 14.8291 16.5163 14.4489 16.2968ZM27.7702 13.8912C28.1491 14.11 28.6358 13.9818 28.8561 13.6003L29.651 12.2234C29.8705 11.8432 29.7403 11.3571 29.3601 11.1376C28.9799 10.9181 28.4937 11.0484 28.2742 11.4285L27.4793 12.8053C27.2597 13.1856 27.39 13.6717 27.7702 13.8912V13.8912ZM34.0152 15.7928C33.7958 15.4126 33.3096 15.2824 32.9294 15.5019L31.5526 16.2968C31.1724 16.5163 31.0421 17.0025 31.2617 17.3827C31.4819 17.7641 31.9684 17.8925 32.3476 17.6736L33.7243 16.8787C34.1046 16.6592 34.2348 16.173 34.0152 15.7928ZM23.0008 12.6133C23.4397 12.6133 23.7957 12.2574 23.7957 11.8183V10.2285C23.7957 9.78955 23.4398 9.43359 23.0008 9.43359C22.5617 9.43359 22.2058 9.78946 22.2058 10.2285V11.8183C22.2058 12.2573 22.5618 12.6133 23.0008 12.6133ZM23.0008 14.203C18.6177 14.203 15.0517 17.7689 15.0517 22.1521C15.0517 25.0418 16.4277 26.563 17.6418 27.9053C18.6664 29.038 19.5685 30.0356 19.7762 31.7971H26.2253C26.433 30.0356 27.335 29.038 28.3597 27.9053C29.5737 26.5631 30.9498 25.0418 30.9498 22.1521C30.9499 17.7689 27.3839 14.203 23.0008 14.203ZM27.4718 22.7728L25.4846 24.3626C25.1942 24.5948 24.7818 24.5948 24.4915 24.3626L23.0008 23.1701L21.5101 24.3627C21.2197 24.5949 20.8072 24.5949 20.517 24.3627L18.5297 22.7729C18.1869 22.4986 18.1313 21.9984 18.4056 21.6556C18.6798 21.3127 19.18 21.2571 19.5229 21.5314L21.0136 22.724L22.5043 21.5314C22.7947 21.2992 23.2071 21.2992 23.4974 21.5314L24.9881 22.724L26.4788 21.5314C26.8215 21.2572 27.3218 21.3127 27.5961 21.6556C27.8702 21.9983 27.8147 22.4986 27.4718 22.7728V22.7728ZM23.0008 36.5664C24.754 36.5664 26.1804 35.14 26.1804 33.3867H19.8212C19.8211 35.14 21.2476 36.5664 23.0008 36.5664Z" fill="url(#paint1_linear)"/>
<defs>
<linearGradient id="paint0_linear" x1="23" y1="46" x2="23" y2="0" gradientUnits="userSpaceOnUse">
<stop stop-color="#FFE59A"/>
<stop offset="1" stop-color="#FFFFD5"/>
</linearGradient>
<linearGradient id="paint1_linear" x1="23.0008" y1="9.43359" x2="23.0008" y2="36.5664" gradientUnits="userSpaceOnUse">
<stop stop-color="#FD5900"/>
<stop offset="1" stop-color="#FFDE00"/>
</linearGradient>
</defs>
</svg>
