<svg width="77" height="76" viewBox="0 0 77 76" fill="none" xmlns="http://www.w3.org/2000/svg">
<rect width="76.4086" height="76" rx="6" fill="#FF815D"/>
<g clip-path="url(#clip0_19:2)">
<path d="M12.4591 56.6353C14.7575 56.6207 17.0193 56.9483 19.2843 57.2726C21.4521 57.5855 23.6241 57.8306 25.8118 57.9621C30.3271 58.2343 34.857 58.1081 39.3702 57.8411C41.9047 57.6919 44.4372 57.4969 46.9696 57.3029C47.0688 57.2945 47.0741 57.1381 46.9696 57.1464C37.8878 57.8452 28.7913 58.4637 19.7273 57.1788C17.3192 56.8346 14.9017 56.4632 12.4591 56.4789C12.4383 56.4789 12.4184 56.4871 12.4037 56.5018C12.389 56.5165 12.3807 56.5364 12.3807 56.5571C12.3807 56.5779 12.389 56.5978 12.4037 56.6124C12.4184 56.6271 12.4383 56.6353 12.4591 56.6353Z" fill="#E8E8E8"/>
<path d="M24.0796 56.1931C34.0703 56.2891 43.9576 54.6359 53.917 54.1207C56.7378 53.9746 59.5585 53.9256 62.3793 54.0268C62.4838 54.0268 62.4838 53.8745 62.3793 53.8703C52.3896 53.5105 42.4877 55.1063 32.545 55.7676C29.7242 55.9553 26.9035 56.0638 24.0827 56.0367C24.0619 56.0367 24.042 56.0449 24.0273 56.0596C24.0126 56.0742 24.0044 56.0941 24.0044 56.1149C24.0044 56.1356 24.0126 56.1555 24.0273 56.1702C24.042 56.1849 24.0619 56.1931 24.0827 56.1931H24.0796Z" fill="#E8E8E8"/>
<path d="M11.0999 50.3783C14.2393 51.7186 17.7172 50.9301 20.9642 50.4993C24.7587 49.9952 28.5705 49.6614 32.3998 49.498C34.5854 49.4049 36.7723 49.3676 38.9607 49.3864C38.9815 49.3864 39.0014 49.3782 39.0161 49.3635C39.0308 49.3488 39.039 49.3289 39.039 49.3082C39.039 49.2875 39.0308 49.2676 39.0161 49.2529C39.0014 49.2382 38.9815 49.23 38.9607 49.23C35.2352 49.2008 31.5132 49.3311 27.7946 49.6211C25.9204 49.7685 24.0503 49.957 22.1845 50.1864C20.4575 50.395 18.7369 50.6944 17.0089 50.8644C15.0406 51.0573 13.0243 51.0313 11.1793 50.2386C11.0874 50.2 11.008 50.3345 11.0999 50.3742V50.3783Z" fill="#E8E8E8"/>
<path d="M38.6671 49.6159C45.4579 49.9778 52.2037 48.5478 58.9944 48.9296C60.9333 49.0271 62.8579 49.3146 64.7404 49.788C64.7605 49.7935 64.7819 49.7909 64.8001 49.7806C64.8182 49.7703 64.8315 49.7533 64.837 49.7332C64.8426 49.7132 64.8399 49.6917 64.8296 49.6736C64.8193 49.6556 64.8023 49.6423 64.7822 49.6367C58.1544 47.9335 51.3104 49.0433 44.5939 49.4156C42.6209 49.5376 40.6427 49.5523 38.6682 49.4594C38.5637 49.4542 38.5637 49.6107 38.6682 49.6159H38.6671Z" fill="#E8E8E8"/>
<path d="M20.4951 63.2898C22.7152 64.3057 25.1609 64.4371 27.5627 64.2389C30.2111 64.0188 32.8386 63.4963 35.4556 63.054C41.1546 62.0913 46.8735 61.112 52.6571 60.8543C55.8957 60.7104 59.1407 60.8032 62.3542 61.2413C62.4524 61.2548 62.4953 61.1047 62.395 61.0911C56.8684 60.336 51.2791 60.6176 45.7619 61.3049C40.2133 61.9975 34.74 63.1719 29.1988 63.903C26.3122 64.2848 23.2814 64.3933 20.5745 63.1542C20.4836 63.1135 20.4032 63.248 20.4951 63.2898Z" fill="#E8E8E8"/>
<path d="M14.8264 33.8591C16.498 34.1574 18.1842 33.9801 19.8578 33.7705C21.6527 33.5452 23.4496 33.346 25.2528 33.1926C28.8697 32.8839 32.4952 32.7323 36.1295 32.7379C38.1848 32.7421 40.2394 32.7963 42.2934 32.9006C42.3978 32.9058 42.3978 32.7494 42.2934 32.7441C35.1413 32.3828 27.9714 32.632 20.8618 33.4889C18.8768 33.7298 16.8668 34.0636 14.8714 33.7089C14.7732 33.6912 14.7303 33.8414 14.8296 33.8591H14.8264Z" fill="#E8E8E8"/>
<path d="M39.8456 26.7886C46.4274 27.8889 52.9454 25.8582 59.5001 25.5067C61.419 25.3869 63.3452 25.4718 65.2461 25.7601C65.3443 25.7758 65.3871 25.6256 65.2868 25.61C58.7008 24.5492 52.1932 26.5873 45.6313 26.9189C43.7114 27.0327 41.7849 26.9387 39.8853 26.6384C39.7871 26.6217 39.7443 26.7719 39.8435 26.7886H39.8456Z" fill="#E8E8E8"/>
<path d="M12.713 16.9603C15.6079 17.9157 18.6616 17.4818 21.6276 17.1929C24.8462 16.8739 28.0882 16.8672 31.3081 17.173C31.4126 17.1835 31.4073 17.026 31.3081 17.0166C28.1529 16.7141 24.976 16.7141 21.8209 17.0166C18.8058 17.3055 15.6998 17.7801 12.7548 16.808C12.6586 16.7756 12.6179 16.9269 12.713 16.9582V16.9603Z" fill="#E8E8E8"/>
<path d="M29.7755 13.5997C33.8499 14.5384 38.0392 14.4497 42.1879 14.2933C46.5224 14.1285 50.8382 14.0847 55.1707 14.3287C57.6477 14.4664 60.1196 14.6698 62.5883 14.9128C62.6927 14.9233 62.6927 14.7658 62.5883 14.7564C58.2725 14.3308 53.9369 14.0294 49.6012 13.9825C45.3952 13.9376 41.1975 14.2954 36.9935 14.2338C34.5822 14.1984 32.1741 13.9929 29.8214 13.4484C29.7232 13.4265 29.6814 13.5767 29.7796 13.5997H29.7755Z" fill="#E8E8E8"/>
<path d="M16.3904 21.0197C16.5854 21.0197 16.7435 20.8618 16.7435 20.6671C16.7435 20.4724 16.5854 20.3146 16.3904 20.3146C16.1954 20.3146 16.0373 20.4724 16.0373 20.6671C16.0373 20.8618 16.1954 21.0197 16.3904 21.0197Z" fill="#461EB8"/>
<path d="M25.4701 12.7517C25.7829 12.7517 26.0364 12.4986 26.0364 12.1864C26.0364 11.8742 25.7829 11.6211 25.4701 11.6211C25.1574 11.6211 24.9039 11.8742 24.9039 12.1864C24.9039 12.4986 25.1574 12.7517 25.4701 12.7517Z" stroke="#461EB8" stroke-miterlimit="10"/>
<path d="M60.2429 32.8599C60.5758 32.8599 60.8457 32.5905 60.8457 32.2581C60.8457 31.9257 60.5758 31.6563 60.2429 31.6563C59.9099 31.6563 59.64 31.9257 59.64 32.2581C59.64 32.5905 59.9099 32.8599 60.2429 32.8599Z" fill="#461EB8"/>
<path d="M16.8825 40.6335C17.1542 40.6335 17.3745 40.4135 17.3745 40.1422C17.3745 39.8709 17.1542 39.651 16.8825 39.651C16.6107 39.651 16.3904 39.8709 16.3904 40.1422C16.3904 40.4135 16.6107 40.6335 16.8825 40.6335Z" stroke="#461EB8" stroke-miterlimit="10"/>
<path d="M55.5687 19.0327C55.8555 19.0327 56.088 18.8006 56.088 18.5143C56.088 18.2281 55.8555 17.996 55.5687 17.996C55.282 17.996 55.0495 18.2281 55.0495 18.5143C55.0495 18.8006 55.282 19.0327 55.5687 19.0327Z" stroke="#461EB8" stroke-miterlimit="10"/>
<path d="M21.2296 25.901C21.4875 25.901 21.6966 25.6922 21.6966 25.4347C21.6966 25.1772 21.4875 24.9685 21.2296 24.9685C20.9717 24.9685 20.7626 25.1772 20.7626 25.4347C20.7626 25.6922 20.9717 25.901 21.2296 25.901Z" fill="#EC615B"/>
<path d="M59.6181 22.7427C60.0854 22.7427 60.4643 22.3645 60.4643 21.8979C60.4643 21.4313 60.0854 21.053 59.6181 21.053C59.1507 21.053 58.7719 21.4313 58.7719 21.8979C58.7719 22.3645 59.1507 22.7427 59.6181 22.7427Z" fill="#EC615B"/>
<path d="M50.0599 12.7517C50.608 12.7517 51.0524 12.3081 51.0524 11.7608C51.0524 11.2136 50.608 10.77 50.0599 10.77C49.5117 10.77 49.0674 11.2136 49.0674 11.7608C49.0674 12.3081 49.5117 12.7517 50.0599 12.7517Z" stroke="#EC615B" stroke-miterlimit="10"/>
<path d="M30.9372 41.6567C31.1386 41.6567 31.3018 41.4937 31.3018 41.2927C31.3018 41.0916 31.1386 40.9286 30.9372 40.9286C30.7358 40.9286 30.5726 41.0916 30.5726 41.2927C30.5726 41.4937 30.7358 41.6567 30.9372 41.6567Z" stroke="#EC615B" stroke-miterlimit="10"/>
<path d="M40.93 49.6816L45.087 50.2261C45.5676 51.3139 46.3093 52.9713 47.2496 54.9822C49.2126 59.1772 50.1853 60.9451 49.9303 61.1088C49.5877 61.3289 47.3499 58.4784 46.7345 57.6961C45.6027 56.2555 44.5529 54.7526 43.5899 53.1945L41.1776 53.377C41.4396 52.1461 41.3538 50.8667 40.93 49.6816Z" fill="black"/>
<path d="M32.7868 42.8843C32.1245 42.9083 31.2312 42.9417 30.175 42.9834C24.7539 43.2024 22.723 43.3609 20.3911 44.1077C19.314 44.453 18.1815 44.9213 17.2475 45.9622C16.6947 46.5405 16.3047 47.2544 16.1172 48.0316C15.8727 49.1163 16.1422 49.9987 16.348 50.6725C16.5926 51.5387 17.0244 52.3408 17.6132 53.0224C17.8984 53.3457 18.7133 54.1937 20.5917 54.8487C22.421 55.487 23.9349 55.4745 25.5019 55.4682C32.9091 55.4244 32.6479 55.4401 32.9843 55.4223C34.9943 55.318 37.6532 55.1167 40.7926 54.7173C40.9582 54.2825 41.0851 53.834 41.1718 53.377C41.3808 52.2964 41.2376 51.5465 41.1864 50.6286C41.1334 49.6441 41.175 48.6567 41.3108 47.6801L40.7884 43.3662L32.7868 42.8843Z" fill="white"/>
<path opacity="0.24" d="M26.2683 47.5591C27.887 47.7452 29.4692 48.1698 30.9633 48.819C33.7214 50.0195 36.9485 52.3496 36.5568 53.426C36.4262 53.7858 35.8766 54.0518 31.3937 53.934C25.4273 53.7744 22.4091 53.669 20.5212 52.3694C19.5946 51.7322 17.7423 50.1885 16.6307 46.7664C16.1804 47.7635 16.0179 48.8664 16.1616 49.9507C16.4207 51.8365 17.5521 53.0255 18.0421 53.4729C19.2477 54.5744 20.5745 54.8497 22.1165 55.1699C23.3848 55.4328 24.3418 55.4567 25.7198 55.4714C28.9376 55.5068 30.5464 55.5245 32.2117 55.4505C34.4391 55.3525 37.3507 55.1501 40.791 54.7131C40.995 54.1579 41.1465 53.5849 41.2434 53.0015C41.3383 52.473 41.3789 51.9362 41.3646 51.3994C41.2789 49.9872 40.3617 48.8847 39.7923 48.3163L26.2683 47.5591Z" fill="#9E9E9E"/>
<path d="M16.1172 48.6709C16.3189 44.9161 20.9825 43.7688 24.0018 43.4079C25.7016 43.2055 27.418 43.167 29.1272 43.1023L34.7217 42.8937C34.8262 42.8937 34.8262 42.7331 34.7217 42.7372L28.5056 42.973C26.6732 43.0428 24.8313 43.0981 23.0177 43.3902C20.1415 43.8553 16.1475 45.1852 15.9626 48.6709C15.9626 48.7752 16.1141 48.7752 16.1193 48.6709H16.1172Z" fill="black"/>
<path d="M15.9161 48.5614C15.9735 50.0404 16.4029 51.5246 17.2836 52.7334C18.2322 54.0299 19.5758 54.7152 21.1199 55.0656C23.1048 55.5162 25.165 55.561 27.1929 55.5944C29.3283 55.6285 31.4627 55.5882 33.596 55.4734C36.0037 55.3441 38.4031 55.1195 40.7942 54.7997C40.8934 54.7861 40.8986 54.6296 40.7942 54.6432C36.9015 55.1617 32.9796 55.4306 29.0525 55.4484C27.0821 55.4567 25.0909 55.4484 23.131 55.2398C21.3299 55.0437 19.3846 54.6891 18.0411 53.377C16.7613 52.1254 16.1407 50.3314 16.0728 48.5697C16.0728 48.4654 15.9119 48.4654 15.9161 48.5697V48.5614Z" fill="black"/>
<path d="M26.2683 47.6373L39.7202 48.3862C39.8247 48.3914 39.8247 48.2349 39.7202 48.2297L26.2683 47.4788C26.1638 47.4735 26.1638 47.63 26.2683 47.6352V47.6373Z" fill="black"/>
<path d="M39.7505 48.3862C40.7315 48.9577 41.1577 50.2146 41.2737 51.2847C41.3928 52.3757 41.1922 53.4625 40.8903 54.5076C40.8867 54.5269 40.8904 54.5468 40.9008 54.5634C40.9112 54.58 40.9274 54.5922 40.9463 54.5974C40.9652 54.6026 40.9854 54.6006 41.0029 54.5917C41.0204 54.5828 41.0339 54.5677 41.0407 54.5493C41.3823 53.3666 41.5903 52.1275 41.3771 50.8988C41.2037 49.8954 40.7503 48.7836 39.8299 48.2485C39.8119 48.238 39.7904 48.2351 39.7702 48.2403C39.7501 48.2456 39.7328 48.2587 39.7223 48.2767C39.7117 48.2946 39.7088 48.3161 39.7141 48.3362C39.7194 48.3564 39.7325 48.3736 39.7505 48.3841V48.3862Z" fill="black"/>
<path d="M38.8855 55.9219L35.1464 59.9636C35.3996 60.5542 35.6877 61.1292 36.0093 61.6856C38.361 65.7617 42.2537 68.3828 42.728 67.9489C43.0518 67.6516 42.0029 65.7095 40.9969 64.4392C40.2896 63.5474 39.7129 63.1271 39.319 62.1039C39.0621 61.4211 38.9552 60.6912 39.0056 59.9636L41.1504 58.009L40.019 56.966L38.8855 55.9219Z" fill="black"/>
<path d="M44.1216 42.5964C44.5897 42.0666 45.3273 41.2676 46.2989 40.3644C47.937 38.8426 49.8394 37.1071 52.678 36.0307C55.3786 35.0064 56.7252 35.4132 57.0711 35.53C57.4169 35.6468 58.3352 35.9712 58.9714 36.8557C59.6077 37.7402 59.6181 38.6789 59.6191 39.3151C59.6191 41.1998 58.7928 42.6256 58.5243 43.0752C56.0054 47.2952 52.2131 50.7747 52.2131 50.7747C50.342 52.4936 47.4951 55.1553 43.8866 58.7109C43.1686 58.7205 42.4555 58.5912 41.7867 58.3302C40.742 57.913 40.1047 57.2872 39.5144 56.6885C38.7442 55.904 38.1104 54.9966 37.6391 54.0038L40.8611 49.4886C40.6312 47.5361 40.4017 45.5836 40.1726 43.6311C40.5769 43.2744 41.7397 42.3524 43.2786 42.4452C43.5645 42.4627 43.8475 42.5134 44.1216 42.5964Z" fill="white"/>
<path opacity="0.21" d="M58.3602 36.208C58.3856 37.1254 58.3212 38.0431 58.168 38.948C56.8736 46.4702 49.758 50.6067 48.2933 51.4109C44.1436 53.6878 40.1078 54.031 37.6433 54.0038C37.9126 54.4968 38.2116 54.9729 38.5386 55.4296C38.8092 55.8093 39.4392 56.6906 40.1423 57.2966C40.5832 57.6763 41.7512 58.5482 43.8908 58.7109C45.4088 57.4291 47.354 55.7102 49.5323 53.571C50.4527 52.6657 51.1757 51.9084 52.6205 50.394C55.5666 47.3056 56.8255 45.8339 58.005 43.9993C58.6868 42.9453 59.1786 41.7805 59.4583 40.5573C59.7466 39.2744 59.6327 38.6006 59.5481 38.2502C59.35 37.4724 58.9387 36.7652 58.3602 36.208Z" fill="#9E9E9E"/>
<path d="M44.177 42.6496C46.0763 40.4719 48.3073 38.6064 50.788 37.1217C53.0332 35.7835 56.6061 34.2106 58.728 36.668C59.7403 37.8413 59.6682 39.531 59.2817 40.936C58.8794 42.3385 58.2233 43.6556 57.3458 44.8222C56.4056 46.1009 55.3055 47.2629 54.2451 48.4404C53.2578 49.5335 52.2674 50.6182 51.255 51.6842C48.9253 54.1363 46.4848 56.482 43.8322 58.5889C43.7528 58.6515 43.8646 58.762 43.943 58.6995C46.5203 56.6562 48.8981 54.3804 51.1673 52.0033C52.3165 50.8018 53.4354 49.5742 54.5459 48.3392C55.6147 47.1502 56.7221 45.9758 57.6467 44.6689C59.0654 42.6642 60.6252 39.312 59.1292 36.9506C57.6143 34.559 54.3673 35.1055 52.2214 36.1569C49.1154 37.6797 46.3354 39.9461 44.0663 42.5401C43.9994 42.6152 44.1101 42.7268 44.177 42.6507V42.6496Z" fill="black"/>
<path d="M49.0611 40.4332C44.8206 44.5688 40.5852 48.818 37.5754 53.9642C37.5648 53.9822 37.5619 54.0036 37.5672 54.0237C37.5725 54.0439 37.5856 54.0611 37.6036 54.0716C37.6216 54.0821 37.643 54.0851 37.6632 54.0798C37.6834 54.0745 37.7007 54.0614 37.7112 54.0435C40.7148 48.9077 44.9407 44.6699 49.1718 40.5438C49.2439 40.4729 49.1332 40.3623 49.0611 40.4332Z" fill="black"/>
<path d="M37.6328 54.0633C38.921 56.4299 40.9133 58.9123 43.8907 58.7892C43.9952 58.7892 43.9952 58.6286 43.8907 58.6327C40.9655 58.7537 39.0307 56.3026 37.7676 53.984C37.7195 53.8964 37.5848 53.9746 37.6328 54.0633Z" fill="black"/>
<path d="M30.5109 20.7391C30.0916 21.9108 29.7824 23.119 29.5874 24.3479C29.2969 26.1836 29.0974 29.1218 31.4 38.8823C31.8179 40.647 32.1793 42.0624 32.3977 42.8989C33.7625 43.4297 35.2007 43.7484 36.6623 43.8439C40.3648 44.0817 43.2284 42.8009 44.5876 42.0707C44.3913 40.4083 44.3804 38.7292 44.5552 37.0643C44.9396 33.4138 46.0178 31.8628 46.4837 28.9507C46.769 27.163 46.8839 24.4658 45.8412 20.9539L30.5109 20.7391Z" fill="#EC615B"/>
<path d="M30.5103 20.7391C30.212 20.7211 29.9128 20.7539 29.6255 20.8361C28.7458 21.0906 28.2527 21.7519 27.8755 22.2734C27.0042 23.478 26.7211 24.7641 26.6166 25.5839C26.2048 25.9756 25.8395 26.4134 25.528 26.8887C25.1235 27.5198 24.8104 28.2049 24.5982 28.9236C24.4972 29.2596 24.4179 29.6017 24.3611 29.9478C22.8692 30.5517 21.791 30.8021 21.0305 30.9147C20.7171 30.9616 20.0307 31.0461 19.7016 31.5478C19.6796 31.5812 19.4216 31.9848 19.5783 32.2998C19.6932 32.5324 19.9816 32.6127 20.5666 32.6951C21.8328 32.8703 22.3928 32.7504 23.2777 32.9235C23.627 32.9921 23.9689 33.0945 24.2984 33.2291C24.3591 33.4085 24.383 33.5983 24.3684 33.7872C24.3182 34.3733 23.8805 34.7707 23.6966 34.9449C23.3916 35.2338 22.748 36.1037 21.4609 37.8434C20.9887 38.4807 20.7181 38.8927 20.4621 39.4278C20.2809 39.8069 20.1297 40.1995 20.0098 40.6022C19.9419 42.8762 20.527 45.1222 21.696 47.0751C21.8562 46.8794 21.9963 46.668 22.1139 46.4441C22.303 46.0853 22.5067 45.5565 22.562 44.5093C22.608 43.5849 22.5257 42.6587 22.3176 41.7568C22.3677 41.4151 22.4651 41.082 22.607 40.767C22.9472 40.0361 23.5012 39.4251 24.196 39.0147C23.5346 40.2582 23.1504 41.6299 23.0698 43.0355C23.2713 43.6454 23.5211 44.2383 23.8168 44.8087C24.5871 46.2752 25.646 47.5715 26.9301 48.6198C27.314 48.471 27.6425 48.2072 27.8703 47.8647C28.2025 47.3432 28.1691 46.8164 28.1472 46.4587C28.1095 45.8569 27.8755 45.3479 27.4085 44.3529C27.209 43.9283 27.0314 43.5862 26.9123 43.363L27.5255 42.2616C27.4877 42.6684 27.5423 43.0784 27.6854 43.4611C27.8442 43.8783 27.9936 43.9304 28.4867 44.598C29.1814 45.5367 29.1971 45.8558 29.7341 46.2824C29.9847 46.4815 30.265 46.6402 30.5647 46.7528C30.6489 46.456 30.672 46.1452 30.6326 45.8391C30.5511 45.2321 30.2492 44.987 29.6411 43.8991C29.1397 43.0042 29.1104 42.7518 29.1031 42.6194C29.0759 42.1187 29.2744 41.7589 29.5335 41.2635C29.8114 40.7305 30.2032 39.9545 30.666 38.9448C30.9988 38.2137 31.2088 37.4328 31.2876 36.6335C31.4966 34.463 30.6608 32.7859 30.2606 32.0902C30.3995 31.5208 30.5066 30.9442 30.5814 30.3629C30.6692 29.6787 30.7138 28.9897 30.7151 28.2999C30.7235 26.9377 30.667 24.2332 30.5103 20.7391Z" fill="white"/>
<path opacity="0.18" d="M30.2732 20.736C29.7158 21.0358 29.2446 21.4732 28.9046 22.0063C28.1012 23.2851 28.3916 24.6337 28.4606 24.9268C28.1733 25.0791 27.56 25.4608 27.2769 26.1784C26.859 27.2527 27.3396 28.6451 28.5306 29.54C27.9725 29.5119 27.413 29.5345 26.859 29.6078C25.1958 29.8279 24.0758 30.4422 23.052 31.018C22.2026 31.4946 21.7806 31.7481 21.7983 32.0516C21.8265 32.7243 23.7938 33.1301 24.2963 33.2271C22.8075 32.7911 21.7806 32.7212 21.0806 32.7535C20.7964 32.766 20.1404 32.8161 19.7757 32.4114C19.7381 32.3707 19.479 32.0797 19.5428 31.7741C19.6472 31.2725 20.5081 31.1202 21.9101 30.7217C22.5244 30.5486 23.3895 30.2858 24.4258 29.9092C24.6497 28.1807 25.4747 26.5856 26.7566 25.4024C26.757 25.0497 26.7941 24.6981 26.8674 24.3531C27.0082 23.7282 27.259 23.1331 27.6081 22.5956C28.0667 21.8332 28.3488 21.3649 28.9401 21.0436C29.3506 20.8284 29.8097 20.7224 30.2732 20.736Z" fill="#9E9E9E"/>
<path opacity="0.18" d="M24.369 33.784C23.9334 34.5283 23.4555 35.2471 22.9377 35.9368C22.2064 36.9151 21.3205 37.9185 20.5348 39.2963C20.2632 39.7472 20.0856 40.2481 20.0125 40.7691C19.9613 41.1581 19.9864 41.4731 20.0543 41.9727C20.1828 42.901 20.2831 43.6301 20.6424 44.7795C21.1032 46.2491 21.3623 47.0741 21.7018 47.0741C22.1448 47.0668 22.4592 45.6472 22.5376 44.8838C22.6003 44.3059 22.6995 43.386 22.173 42.6048C21.8596 42.1406 21.6318 42.1751 21.427 41.8277C20.9183 40.9704 21.6767 39.6739 22.173 38.7529C23.0283 37.1537 23.7624 35.4928 24.369 33.784Z" fill="#9E9E9E"/>
<path opacity="0.18" d="M24.1443 39.1201C23.8233 39.8976 23.712 40.7456 23.8215 41.5795C23.8892 42.076 24.0363 42.5584 24.2572 43.0084C24.4931 43.3373 24.8326 43.5779 25.2215 43.6916C26.0416 43.9242 26.7091 43.4569 26.7969 43.3943C27.0513 43.7438 27.2816 44.11 27.4864 44.4905C27.8249 45.1226 28.0276 45.5002 28.1133 46.0551C28.212 46.5933 28.1558 47.1484 27.9513 47.6561C27.7544 48.1208 27.4344 48.5232 27.0257 48.8201C26.4723 48.3288 25.9558 47.7975 25.4805 47.2305C24.6515 46.2783 23.9701 45.2074 23.459 44.0535C23.2793 43.6363 23.1539 43.2869 23.0724 43.0387C23.1528 41.6732 23.5179 40.3396 24.1443 39.1232V39.1201Z" fill="#9E9E9E"/>
<path opacity="0.18" d="M28.5458 40.9297C28.391 41.3803 28.2982 41.8497 28.27 42.3252C28.2313 42.9959 28.2 43.5351 28.551 43.8157C28.902 44.0963 29.4359 43.9649 29.6375 43.9033C30.3104 44.6957 30.6423 45.7214 30.5611 46.757C30.1614 46.5505 29.7977 46.2811 29.484 45.9591C29.2959 45.7641 29.2447 45.6712 28.6753 44.9036C28.0548 44.0692 28.0683 44.113 27.9858 43.9753C27.6762 43.4347 27.5084 42.8248 27.4979 42.2022C27.8469 41.7794 28.1962 41.3552 28.5458 40.9297Z" fill="#9E9E9E"/>
<path d="M30.5109 20.6609C28.0213 20.5128 26.9192 23.6032 26.541 25.563C26.5222 25.6611 26.6726 25.7038 26.6914 25.6047C27.0571 23.7085 28.1007 20.6744 30.5099 20.8173C30.6144 20.8173 30.6144 20.6661 30.5099 20.6609H30.5109Z" fill="black"/>
<path d="M27.7779 24.9518C26.7781 25.1072 26.0886 25.902 25.5558 26.702C24.9132 27.6768 24.4806 28.7743 24.2854 29.9249C24.2687 30.024 24.4191 30.0657 24.4369 29.9666C24.6095 28.944 24.9716 27.9624 25.5046 27.0722C26.0322 26.2003 26.7489 25.2678 27.8197 25.0999C27.9242 25.0853 27.8772 24.9341 27.7779 24.9497V24.9518Z" fill="black"/>
<path d="M27.9754 29.7017C27.2963 29.5314 26.5919 29.4851 25.8964 29.565C25.1546 29.6547 24.5048 29.9332 23.8153 30.2002C23.1257 30.4673 22.3944 30.5736 21.6621 30.7051C21.0478 30.8146 20.3311 30.9429 19.8255 31.3361C19.5361 31.5614 19.3031 31.9202 19.4838 32.2863C19.652 32.6284 20.1002 32.7212 20.4398 32.7619C21.8198 32.9246 23.809 32.62 24.836 33.7673C24.9039 33.8424 25.0146 33.7308 24.9467 33.6568C24.3345 32.9726 23.4235 32.8318 22.5501 32.7608C21.9233 32.7097 21.2964 32.6774 20.6696 32.6242C20.5077 32.6172 20.3466 32.5969 20.188 32.5637C19.8662 32.4813 19.8432 32.4521 19.7387 32.0996C19.6207 31.7032 19.6813 31.6073 20.0354 31.3788C20.1999 31.2791 20.3752 31.1983 20.5578 31.1379C21.6882 30.7259 22.9084 30.7322 24.0336 30.2764C25.3176 29.7549 26.5535 29.5192 27.9263 29.8519C28.0245 29.8759 28.0663 29.7246 27.9681 29.7017H27.9754Z" fill="black"/>
<path d="M24.2311 33.2688C24.5821 34.0051 23.5092 35.0815 23.0944 35.6145C22.7037 36.1162 22.3014 36.6085 21.9128 37.1123C21.1387 38.1125 20.4293 39.1545 19.9665 40.3383C19.9299 40.4322 20.0814 40.4729 20.118 40.38C20.7103 38.8656 21.7216 37.5962 22.7235 36.3342C23.1571 35.7897 23.5886 35.2442 23.9866 34.6727C24.3 34.2252 24.6249 33.734 24.3658 33.1895C24.323 33.0988 24.1882 33.178 24.2311 33.2688Z" fill="black"/>
<path d="M19.9404 40.3331C19.858 42.6335 20.378 44.9156 21.449 46.9541C21.496 47.0438 21.6308 46.9646 21.5848 46.8749C20.5268 44.8608 20.014 42.6058 20.0971 40.3331C20.0971 40.2288 19.9446 40.2288 19.9404 40.3331Z" fill="black"/>
<path d="M25.3698 37.9039C24.2948 38.8426 23.0035 39.7386 22.3955 41.0684C22.3537 41.1602 22.4895 41.2395 22.5313 41.1477C23.131 39.8345 24.4181 38.9375 25.4806 38.0187C25.5568 37.9529 25.4461 37.8424 25.3698 37.9081V37.9039Z" fill="black"/>
<path d="M22.3537 41.1268C22.1907 41.4887 22.2722 41.8642 22.3161 42.2481C22.3788 42.804 22.454 43.3589 22.4791 43.9169C22.5292 45.0162 22.3652 46.1468 21.6433 47.0188C21.5796 47.096 21.6903 47.2065 21.754 47.1294C22.2983 46.4733 22.5574 45.6754 22.6274 44.8347C22.6621 44.2995 22.6481 43.7622 22.5856 43.2295C22.5282 42.6507 22.244 41.7547 22.4916 41.2061C22.5323 41.1153 22.3976 41.035 22.3558 41.1268H22.3537Z" fill="black"/>
<path d="M29.7378 31.4738C30.7513 32.8115 31.2799 34.453 31.237 36.1298C31.1869 37.9999 30.2759 39.5926 29.461 41.2259C29.4161 41.3156 29.5508 41.3949 29.5958 41.3041C30.4221 39.6447 31.3415 38.0291 31.3916 36.1298C31.4351 34.4256 30.8993 32.7569 29.8716 31.3955C29.811 31.3163 29.6752 31.3955 29.7358 31.4738H29.7378Z" fill="black"/>
<path d="M24.1318 38.9761C23.4687 40.2298 23.0869 41.6125 23.0129 43.0282C23.0066 43.1325 23.1633 43.1325 23.1696 43.0282C23.2426 41.6399 23.6169 40.284 24.2666 39.0544C24.3136 38.9657 24.1788 38.8864 24.1318 38.9761Z" fill="black"/>
<path d="M22.9972 43.0564C23.7352 45.2563 25.0797 47.2037 26.8763 48.6751C26.9547 48.7387 27.0654 48.6282 26.9881 48.5645C25.2107 47.1122 23.8799 45.1885 23.1487 43.0147C23.1163 42.9198 22.9648 42.9604 22.9972 43.0564Z" fill="black"/>
<path d="M28.7568 40.5782C27.9848 41.4356 27.2242 42.3023 26.729 43.3547C26.6862 43.4455 26.822 43.5247 26.8648 43.434C27.3537 42.391 28.1039 41.5357 28.8676 40.6888C28.9355 40.6147 28.8247 40.5031 28.7568 40.5782Z" fill="black"/>
<path d="M27.1814 40.1464C26.5295 41.0048 25.8295 41.9508 25.5422 43.0042C25.5367 43.0243 25.5393 43.0457 25.5496 43.0638C25.5599 43.0819 25.577 43.0952 25.597 43.1007C25.6171 43.1063 25.6386 43.1036 25.6567 43.0933C25.6748 43.0831 25.6881 43.066 25.6937 43.046C25.9758 42.0092 26.6736 41.0715 27.3172 40.2246C27.3778 40.1454 27.242 40.0671 27.1814 40.1464Z" fill="black"/>
<path d="M25.5359 43.0251C25.6164 43.9044 26.1732 44.5667 26.6047 45.302C27.1877 46.2939 27.5502 47.436 27.1365 48.5614C27.102 48.6553 27.2535 48.697 27.288 48.6031C27.6014 47.7395 27.4969 46.83 27.1365 45.9956C26.7113 44.9943 25.795 44.1359 25.6927 43.0209C25.6833 42.9166 25.5265 42.9166 25.5359 43.0209V43.0251Z" fill="black"/>
<path d="M26.7269 43.338C27.1762 44.1119 27.7811 44.9203 27.9806 45.8037C28.0775 46.2404 28.0846 46.6922 28.0017 47.1318C27.9187 47.5713 27.7473 47.9895 27.498 48.3611C27.4426 48.4456 27.5784 48.5239 27.6327 48.4394C28.0966 47.7451 28.2939 46.907 28.1885 46.079C28.0506 45.0433 27.3684 44.1411 26.8565 43.2629C26.8453 43.2464 26.8283 43.2347 26.8088 43.2303C26.7894 43.2259 26.7689 43.2291 26.7517 43.2392C26.7346 43.2494 26.7219 43.2656 26.7163 43.2848C26.7107 43.3039 26.7127 43.3244 26.7217 43.3422L26.7269 43.338Z" fill="black"/>
<path d="M29.5028 41.1487C29.1465 41.9487 28.8404 42.6037 29.251 43.4538C29.4673 43.9002 29.7964 44.2757 30.0492 44.7054C30.3981 45.2874 30.5047 45.9382 30.5935 46.6005C30.6071 46.6986 30.7638 46.7048 30.7502 46.6005C30.6342 45.7296 30.4493 44.9943 29.9457 44.2632C29.672 43.8668 29.3607 43.4684 29.2374 42.9938C29.0682 42.3461 29.3837 41.8048 29.6376 41.2322C29.6783 41.1414 29.5435 41.0611 29.5028 41.1539V41.1487Z" fill="black"/>
<path d="M27.4436 42.2658C27.4112 42.732 27.406 43.1701 27.6588 43.5779C27.9722 44.0827 28.3536 44.5552 28.7036 45.0381C29.1737 45.6952 29.6647 46.6829 30.5454 46.8331C30.6436 46.8498 30.6864 46.6986 30.5862 46.6819C29.7086 46.5327 29.1977 45.4595 28.7244 44.7993C28.457 44.4269 28.1833 44.0577 27.9231 43.6812C27.6097 43.2316 27.5669 42.7988 27.6045 42.2658C27.6118 42.1615 27.4551 42.1615 27.4478 42.2658H27.4436Z" fill="black"/>
<path d="M28.4768 30.8114C28.728 31.4177 28.8232 32.077 28.7539 32.7293C28.6846 33.3817 28.4528 34.0064 28.0798 34.5465C28.0234 34.6289 28.1592 34.7081 28.2156 34.6247C28.6009 34.0666 28.8403 33.4213 28.9122 32.7473C28.9841 32.0733 28.8861 31.3921 28.6273 30.7656C28.5897 30.6738 28.4371 30.7134 28.4758 30.8073L28.4768 30.8114Z" fill="black"/>
<path d="M30.4932 28.0715C30.6697 29.3207 30.5538 30.5938 30.1547 31.7908C30.1233 31.8868 30.2748 31.9285 30.3062 31.8326C30.7121 30.6082 30.828 29.3064 30.6447 28.0297C30.6311 27.9254 30.4796 27.9724 30.4932 28.0715Z" fill="black"/>
<path d="M46.0551 21.3722C46.6469 21.3843 47.2244 21.5559 47.7266 21.8687C48.4245 22.314 48.739 22.9242 49.138 23.7211C49.5307 24.5082 49.8032 25.3494 49.9467 26.217C50.3359 26.5878 50.6841 26.9994 50.9851 27.4446C51.6175 28.388 52.0331 29.4594 52.2022 30.582C52.5483 30.7983 52.9186 30.9733 53.3055 31.1035C53.8665 31.2923 54.0723 31.2526 55.0564 31.4435C56.284 31.6813 56.6016 31.868 56.8168 32.134C56.9213 32.2591 57.1302 32.5157 57.0581 32.7598C56.9275 33.2291 55.8744 33.323 55.163 33.3856C53.7578 33.5108 53.0579 33.2604 52.501 33.7632C52.3597 33.8926 52.2463 34.0495 52.1678 34.2242C52.3814 34.7149 52.6314 35.1891 52.9158 35.6427C53.31 36.2684 53.7649 36.8539 54.2739 37.3907C54.8924 38.0645 55.7104 39.1555 56.541 40.9641C56.561 41.4348 56.5547 41.9063 56.5222 42.3763C56.4822 42.9673 56.4037 43.5551 56.2871 44.1359C55.9507 45.7171 55.2424 47.0626 54.8705 47.7103C54.5556 47.3083 54.3193 46.8508 54.1736 46.3617C54.0744 46.0196 53.996 45.5711 54.1047 43.799C54.1945 42.3388 54.2677 42.3169 54.1977 41.979C54.0733 41.3855 53.6753 40.623 52.478 39.8606C53.0748 41.0477 53.4208 42.3446 53.4946 43.6707C53.2419 44.4346 52.9136 45.1715 52.5146 45.8704C51.7388 47.2202 50.7148 48.4117 49.4964 49.3822C49.3097 49.2967 49.1394 49.1796 48.9928 49.036C48.4036 48.455 48.414 47.6133 48.4193 47.193C48.4297 46.3752 48.7118 45.7734 48.9709 45.2185C49.175 44.7829 49.4236 44.3694 49.7126 43.9847C49.2885 43.0741 49.1151 42.878 49.0409 42.902C48.9364 42.9364 49.0983 43.4089 48.9448 43.9815C48.8309 44.4071 48.6585 44.4519 48.132 45.1664C47.8394 45.5638 47.3756 46.2511 46.7738 46.9791C46.6568 47.121 46.4364 47.3838 46.1668 47.3609C46.0622 47.3482 45.9643 47.303 45.8869 47.2316C45.8891 46.7963 45.9694 46.365 46.124 45.958C46.2797 45.5607 46.5012 45.2165 46.8971 44.6021C47.2607 44.0379 47.3693 43.9304 47.4195 43.6457C47.4842 43.2973 47.4059 43.0021 47.2649 42.5975C47.0538 41.9919 46.7968 41.4033 46.4959 40.8369C46.4395 40.7326 45.8367 39.6019 45.5358 38.6267C45.2256 37.5623 45.1613 36.4414 45.3478 35.3485C45.5016 34.3338 45.8514 33.3586 46.3779 32.4771C46.2682 32.2022 46.1767 31.9203 46.1042 31.6333C45.9214 30.8901 45.8604 30.1223 45.9234 29.3596C46.0457 27.43 45.6361 27.2412 45.6978 24.7954C45.728 23.6468 45.8475 22.5023 46.0551 21.3722Z" fill="white"/>
<path opacity="0.27" d="M45.8235 21.3044C46.4777 21.5835 47.0366 22.0462 47.4324 22.6363C48.2995 23.9505 47.9663 25.3669 47.9036 25.6141C48.2988 26.02 48.6659 26.4521 49.0026 26.9075C49.6023 27.7189 49.9032 28.1372 49.9429 28.7098C49.9606 28.958 49.9554 29.5442 49.4425 30.2649C50.0954 30.3071 50.7208 30.5432 51.2384 30.9429C51.5152 31.1609 52.048 31.5791 52.2194 32.3144C52.4638 33.3574 51.7795 34.2231 51.6771 34.3472C51.9352 34.8333 52.3562 35.5989 52.9256 36.5073C54.7403 39.3986 56.1402 40.6658 55.7516 41.326C55.6241 41.543 55.2595 41.7714 54.0936 41.6316C54.1596 41.8807 54.203 42.1352 54.2231 42.392C54.2701 43.0074 54.1657 43.4225 54.1019 43.799C53.9758 44.5638 53.9786 45.3443 54.1103 46.1082C54.2357 46.7424 54.5783 47.7906 54.9461 47.7771C55.0338 47.7771 55.225 47.7061 55.7234 46.0697C56.1653 44.6094 56.3941 43.4141 56.415 43.4183C56.4125 43.5144 56.3974 43.6098 56.3701 43.702C56.3408 43.702 56.4432 42.4358 56.555 41.1373C56.1254 40.2122 55.6076 39.3306 55.0088 38.5047C53.7551 36.7754 53.123 35.9118 53.0071 35.8012C52.6477 35.456 52.5464 34.9157 52.2622 34.5079C52.1841 34.4123 52.1449 34.2909 52.1525 34.1679C52.1817 33.954 52.4084 33.8216 52.5056 33.7673C53.31 33.3126 55.2334 33.3501 55.5938 33.3595C55.8957 33.3668 56.2875 33.3814 56.6385 33.1353C56.6845 33.1029 57.0794 32.8161 57.0564 32.4823C57.0481 32.3843 56.9906 32.0933 56.0274 31.6865C55.0422 31.2693 54.4498 31.3006 53.3571 30.9981C52.9494 30.8863 52.5492 30.7491 52.1588 30.5872C52.1161 30.148 52.03 29.7141 51.9018 29.2918C51.5331 28.1155 50.8629 27.0559 49.9575 26.218C49.8331 25.5258 49.6359 24.8487 49.3693 24.1977C49.1952 23.7307 48.9628 23.2874 48.6777 22.8783C48.4291 22.5289 48.1407 22.1252 47.633 21.7998C47.091 21.4623 46.4621 21.2901 45.8235 21.3044Z" fill="#9E9E9E"/>
<path opacity="0.22" d="M46.9957 41.8236C47.26 42.0405 47.5881 42.3857 47.656 42.8593C47.7406 43.4392 47.3864 43.8825 47.5609 44.0285C47.7051 44.1484 48.0927 43.968 48.3215 43.7437C48.8438 43.2327 48.6547 42.3805 48.6286 42.271C48.8768 42.5363 49.0297 42.8764 49.0632 43.2379C49.0914 43.6196 48.9588 43.9044 48.7916 44.2465C48.5826 44.6835 48.4531 44.7304 47.867 45.5388C47.633 45.8621 47.5536 45.9956 47.2266 46.4326C46.8996 46.8696 46.7491 47.0584 46.4848 47.2201C46.2896 47.3397 46.0756 47.4254 45.8517 47.4735C45.9243 46.8088 46.0965 46.1587 46.3626 45.545C46.8348 44.4603 47.376 44.0525 47.4073 43.2066C47.4115 42.7149 47.2681 42.2332 46.9957 41.8236Z" fill="#9E9E9E"/>
<path opacity="0.25" d="M51.9874 39.2077C51.9529 39.2244 52.2099 39.6896 52.444 40.4384C52.7824 41.5232 53.3205 43.2462 52.5777 43.9982C51.7774 44.8076 49.8959 44.0785 49.7695 44.0285C49.3444 44.5249 49.0057 45.089 48.7676 45.6973C48.5732 46.1938 48.3758 46.6986 48.4207 47.3453C48.4907 48.3309 49.081 49.0235 49.3693 49.3176C49.7318 49.1058 50.0754 48.8633 50.3963 48.5927C50.5697 48.4467 51.2551 47.8553 52.0773 46.5755C52.6602 45.6656 53.1352 44.6911 53.4929 43.6718C53.4645 42.9981 53.355 42.3303 53.1669 41.6827C52.7584 40.2716 52.0428 39.1827 51.9874 39.2077Z" fill="#9E9E9E"/>
<path d="M46.0554 21.4525C48.4635 21.3096 49.5083 24.3437 49.8729 26.2399C49.8927 26.3442 50.0432 26.2973 50.0244 26.1982C49.6472 24.2384 48.545 21.1479 46.0544 21.2961C45.9499 21.3023 45.9499 21.4588 46.0544 21.4525H46.0554Z" fill="black"/>
<path d="M48.7467 25.7382C49.8165 25.9051 50.5342 26.8386 51.0618 27.7106C51.5945 28.6008 51.9566 29.5824 52.1295 30.6049C52.1462 30.704 52.2977 30.6613 52.2799 30.5632C52.0851 29.412 51.6529 28.3138 51.0106 27.3382C50.4788 26.5361 49.7872 25.7435 48.7874 25.587C48.6892 25.5714 48.6464 25.7226 48.7467 25.7382Z" fill="black"/>
<path d="M48.637 30.4881C50.0087 30.1554 51.2488 30.3911 52.5296 30.9116C53.6537 31.3684 54.8782 31.3549 56.0054 31.7731C56.3115 31.8868 56.789 32.0683 56.9279 32.3989C57.2215 33.0998 56.3878 33.2135 55.9992 33.25C55.341 33.3115 54.6797 33.3387 54.0204 33.3929C53.1471 33.4649 52.236 33.6015 51.6228 34.2888C51.5559 34.3639 51.6667 34.4745 51.7335 34.3994C52.7668 33.2469 54.7444 33.565 56.1308 33.3939C56.4724 33.3512 56.9143 33.2615 57.0867 32.9183C57.2696 32.5564 57.0303 32.1882 56.7451 31.9692C56.2395 31.5749 55.5217 31.4477 54.9085 31.3371C54.1772 31.2057 53.4521 31.1045 52.7553 30.8323C52.0971 30.5757 51.4703 30.3108 50.764 30.2065C50.0396 30.1112 49.3037 30.1537 48.5952 30.3317C48.497 30.3556 48.5388 30.5058 48.637 30.4829V30.4881Z" fill="black"/>
<path d="M52.1995 33.8247C51.955 34.34 52.235 34.8051 52.5307 35.238C52.9381 35.8367 53.3915 36.4041 53.8418 36.9704C54.8447 38.2314 55.856 39.5018 56.4536 41.0152C56.4902 41.1081 56.6417 41.0674 56.6051 40.9735C56.1423 39.7907 55.4329 38.7477 54.6588 37.7475C54.2691 37.2447 53.8679 36.7514 53.4772 36.2497C53.0593 35.7136 51.9916 34.6362 52.3405 33.904C52.3834 33.8132 52.2486 33.734 52.2047 33.8247H52.1995Z" fill="black"/>
<path d="M56.4682 40.9693C56.5521 43.242 56.0396 45.4971 54.9816 47.5111C54.9346 47.5997 55.0704 47.679 55.1174 47.5904C56.1886 45.552 56.7082 43.2697 56.625 40.9693C56.625 40.865 56.4651 40.865 56.4682 40.9693Z" fill="black"/>
<path d="M51.0858 38.6507C52.1472 39.5738 53.4354 40.4697 54.0351 41.7798C54.0769 41.8705 54.2116 41.7912 54.1709 41.7005C53.5639 40.3706 52.2705 39.4695 51.1965 38.536C51.1203 38.4692 51.0095 38.5798 51.0858 38.6465V38.6507Z" fill="black"/>
<path d="M54.0769 41.8423C54.313 42.3638 54.0497 43.217 53.9922 43.7677C53.9225 44.3327 53.9053 44.9029 53.941 45.471C54.011 46.3127 54.2701 47.1095 54.8134 47.7656C54.8782 47.8438 54.9879 47.7322 54.9241 47.655C54.2012 46.7831 54.0372 45.6524 54.0884 44.5531C54.1124 44.0316 54.1813 43.5049 54.2409 42.9813C54.2889 42.5704 54.3892 42.1521 54.2148 41.7631C54.173 41.6713 54.0382 41.7505 54.0789 41.8423H54.0769Z" fill="black"/>
<path d="M46.6927 32.0307C45.6645 33.3922 45.1287 35.0614 45.1727 36.766C45.2228 38.6643 46.1411 40.2809 46.9685 41.9404C47.0135 42.0301 47.1482 41.9508 47.1033 41.8611C46.2905 40.2277 45.3785 38.6351 45.3273 36.766C45.2862 35.0908 45.8155 33.4512 46.8285 32.1152C46.8891 32.0349 46.7533 31.9567 46.6927 32.0359V32.0307Z" fill="black"/>
<path d="M52.2998 39.6906C52.9493 40.9199 53.3236 42.2755 53.3968 43.6634C53.402 43.7677 53.5587 43.7677 53.5535 43.6634C53.4783 42.2479 53.0966 40.8654 52.4346 39.6113C52.3876 39.5216 52.2528 39.6009 52.2998 39.6906Z" fill="black"/>
<path d="M53.4176 43.6499C52.6861 45.8235 51.3554 47.7471 49.5783 49.1997C49.4999 49.2644 49.6117 49.3739 49.689 49.3103C51.4865 47.8395 52.8321 45.8925 53.5712 43.6926C53.6036 43.5967 53.4521 43.556 53.4197 43.6509L53.4176 43.6499Z" fill="black"/>
<path d="M47.6988 41.325C48.4625 42.1719 49.2126 43.0293 49.7015 44.0692C49.7444 44.1599 49.8802 44.0806 49.8373 43.9899C49.3421 42.9375 48.5837 42.0707 47.8095 41.2144C47.7416 41.1393 47.6309 41.2499 47.6988 41.325Z" fill="black"/>
<path d="M49.2492 40.8598C49.8917 41.7057 50.5896 42.6434 50.8727 43.6759C50.8781 43.696 50.8912 43.7131 50.9093 43.7235C50.9273 43.7338 50.9487 43.7366 50.9688 43.7312C50.9889 43.7258 51.006 43.7127 51.0164 43.6947C51.0268 43.6767 51.0296 43.6553 51.0242 43.6353C50.7369 42.5818 50.0369 41.6348 49.385 40.7764C49.3244 40.6971 49.1886 40.7764 49.2492 40.8556V40.8598Z" fill="black"/>
<path d="M50.8737 43.6603C50.7693 44.7763 49.8551 45.6337 49.4289 46.635C49.0747 47.4694 48.9608 48.3747 49.2784 49.2425C49.3129 49.3364 49.4644 49.2957 49.4299 49.2008C49.012 48.0754 49.3787 46.9343 49.9617 45.9414C50.3932 45.2113 50.95 44.5437 51.0304 43.6645C51.0398 43.5602 50.8831 43.5654 50.8737 43.6645V43.6603Z" fill="black"/>
<path d="M49.7057 43.895C49.1938 44.7763 48.5106 45.6796 48.3737 46.7111C48.2685 47.5392 48.4654 48.3775 48.9285 49.0725C48.9838 49.1559 49.1196 49.0777 49.0643 48.9932C48.8149 48.6216 48.6435 48.2034 48.5606 47.7638C48.4776 47.3243 48.4848 46.8725 48.5816 46.4358C48.7853 45.5534 49.3923 44.744 49.8353 43.9701C49.8433 43.9524 49.8444 43.9324 49.8385 43.914C49.8326 43.8956 49.82 43.88 49.8033 43.8702C49.7865 43.8605 49.7667 43.8573 49.7477 43.8613C49.7287 43.8653 49.7119 43.8762 49.7005 43.8918L49.7057 43.895Z" fill="black"/>
<path d="M46.9278 41.8632C47.1827 42.4358 47.4982 42.9771 47.329 43.6238C47.2047 44.0994 46.8933 44.4968 46.6207 44.8942C46.1171 45.6243 45.9322 46.3596 45.8152 47.2316C45.8026 47.3307 45.9593 47.3296 45.9719 47.2316C46.0565 46.6005 46.1526 45.9716 46.4733 45.4105C46.7324 44.9568 47.0866 44.5625 47.3154 44.089C47.727 43.2368 47.4199 42.586 47.0636 41.7839C47.0229 41.6921 46.8881 41.7714 46.9278 41.8632Z" fill="black"/>
<path d="M48.965 42.902C49.0026 43.4319 48.9556 43.8731 48.6516 44.3164C48.3894 44.6929 48.1167 45.0621 47.8503 45.4345C47.377 46.0947 46.863 47.169 45.9875 47.3181C45.8883 47.3348 45.9311 47.485 46.0293 47.4683C46.909 47.3192 47.4 46.3304 47.8712 45.6733C48.2034 45.2092 48.5597 44.7544 48.872 44.2757C49.152 43.8449 49.1614 43.4048 49.1259 42.902C49.1196 42.7977 48.9629 42.7977 48.9692 42.902H48.965Z" fill="black"/>
<path d="M47.9381 31.4049C47.6799 32.0316 47.5823 32.7127 47.6541 33.3866C47.726 34.0604 47.9651 34.7057 48.3497 35.2641C48.4061 35.3465 48.5419 35.2641 48.4845 35.1848C48.1118 34.6445 47.8804 34.0198 47.8115 33.3674C47.7425 32.715 47.8381 32.0558 48.0895 31.4498C48.1272 31.3569 47.9757 31.3163 47.9381 31.408V31.4049Z" fill="black"/>
<path d="M45.9217 28.6649C45.7378 29.9418 45.853 31.2438 46.2581 32.4688C46.2895 32.5637 46.4409 32.523 46.4086 32.4271C46.01 31.2296 45.8941 29.9563 46.0701 28.7067C46.0847 28.6086 45.9332 28.5658 45.9196 28.6649H45.9217Z" fill="black"/>
<path d="M38.8238 11.6399C37.3612 11.7515 36.3791 12.493 35.8056 12.9269C34.7668 13.7224 33.9549 14.7757 33.4508 15.9819C33.2982 15.9423 32.919 15.8672 32.6505 16.0716C32.2671 16.3647 32.3862 17.0218 32.4656 17.4619C32.545 17.9021 32.6568 18.5154 33.1802 18.8085C33.4422 18.9467 33.7427 18.9944 34.0348 18.9441C34.2226 19.3586 34.4318 19.7632 34.6616 20.156C35.1471 20.9937 35.7211 21.777 36.3739 22.4924C36.4693 23.1641 36.5648 23.8361 36.6602 24.5085C36.8225 24.7113 37.0186 24.8845 37.24 25.0206C37.4489 25.1479 38.1332 25.5244 38.9492 25.3043C39.2601 25.2177 39.5464 25.0595 39.785 24.8423L40.2196 22.7281C40.6961 22.4731 41.1334 22.151 41.5182 21.7717C42.2389 21.0498 42.7552 20.1501 43.0142 19.1641C43.202 19.2674 43.4181 19.3076 43.6306 19.2789C44.3995 19.1443 44.7108 17.9146 44.7882 17.6101C44.9449 16.9926 45.1256 16.5285 44.8686 16.2792C44.6398 16.057 44.1697 16.0883 43.6964 16.3146C43.6828 16.1258 43.4143 13.1042 41.1191 12.0143C40.137 11.5512 39.1539 11.6148 38.8238 11.6399Z" fill="white"/>
<path opacity="0.24" d="M35.1537 13.4839C35.1108 13.7739 35.0576 14.1973 35.0273 14.7094C34.9468 16.0591 34.834 17.9772 35.6823 19.7044C36.657 21.6861 38.5156 22.6342 39.3744 22.9982C39.2145 23.114 39.0401 23.2319 38.852 23.3477C38.5906 23.5076 38.3207 23.6531 38.0434 23.7836L37.9776 25.224C37.6643 25.2274 37.359 25.1256 37.1106 24.9349C36.8622 24.7442 36.6852 24.4758 36.6079 24.1727L36.469 22.5195C36.1336 22.2585 35.825 21.9651 35.5475 21.6434C34.8549 20.8309 34.3657 19.8657 34.1204 18.8272C34.0456 18.9212 33.9434 18.9897 33.8279 19.0233C33.5876 19.0849 33.3714 18.9441 33.2544 18.8679C32.7863 18.5623 32.3538 17.8406 32.4071 17.0239C32.4249 16.7496 32.4625 16.1738 32.8751 15.9631C33.0726 15.8742 33.2962 15.8623 33.502 15.9298C33.8761 15.0073 34.4402 14.1736 35.1579 13.4829L35.1537 13.4839Z" fill="#9E9E9E"/>
<path opacity="0.36" d="M33.9126 17.2627C34.0783 17.7828 34.283 18.2898 34.5248 18.7793C35.6343 21.028 37.2923 22.4444 38.4686 23.2548L37.169 23.5239L37.1543 24.9685L36.7772 24.6243L36.4105 22.6238C36.0969 22.3222 35.8083 21.9957 35.5476 21.6475C34.3482 20.0403 34.0139 18.3297 33.9126 17.2627Z" fill="#9E9E9E"/>
<path d="M38.2931 11.4281C38.4261 12.1696 38.7026 12.8782 39.1069 13.5142C40.556 15.7806 43.1542 16.2343 43.6964 16.3167C44.0997 16.0549 44.5322 15.9652 44.7735 16.1436C45.0723 16.3657 44.9584 16.9144 44.8561 17.4077C44.7767 17.7895 44.6544 18.3767 44.1248 18.8377C43.8645 19.0627 43.5538 19.2219 43.219 19.3018L42.8899 19.3467C42.7595 19.8455 42.5575 20.323 42.2902 20.7641C41.7839 21.5883 41.0699 22.2655 40.2196 22.7281C40.0524 23.2496 39.8957 24.0454 40.1652 24.8788C40.8025 26.8553 43.5084 28.0496 45.7712 27.4655C47.6235 26.9867 49.0496 25.3461 49.4372 23.2934C49.8864 23.0108 51.1255 22.1461 51.3501 20.7558C51.6635 18.8064 49.8875 16.4158 46.7972 15.6742C46.7972 15.3718 46.7094 12.0696 43.8719 10.139C41.4022 8.4545 38.7413 9.10951 38.3432 9.21382C37.5929 9.0333 36.8117 9.0219 36.0563 9.18044C33.4079 9.75514 31.3488 12.5535 30.6708 16.2187C30.0878 16.3136 28.8289 16.6015 27.756 17.6288C26.2547 19.0651 25.4576 21.6184 26.5253 23.6314C26.6371 23.84 27.6358 25.6569 29.6689 25.9156C30.4676 26.0088 31.2762 25.8636 31.9923 25.4984C32.639 26.5727 33.6252 27.3434 34.4997 27.2318C35.7157 27.0754 36.9736 25.1521 36.4157 22.6207C35.4217 21.5426 34.6471 20.2819 34.1351 18.9086C33.9103 18.9993 33.6631 19.019 33.4267 18.9649C32.7581 18.798 32.4552 17.9981 32.406 17.4661C32.3486 16.8403 32.5878 15.9809 33.0569 15.9016C33.3014 15.862 33.5375 16.0476 33.6837 16.1895L38.2931 11.4281Z" fill="#461EB8"/>
<path d="M33.7642 17.27C33.7339 18.5999 34.4182 20.0768 35.1223 21.1792C35.8014 22.2358 36.7605 23.0942 37.9891 23.4363C38.0082 23.4394 38.0278 23.4353 38.0441 23.4248C38.0603 23.4143 38.0722 23.3982 38.0772 23.3795C38.0823 23.3609 38.0802 23.341 38.0715 23.3237C38.0627 23.3065 38.0479 23.2931 38.0298 23.2861C36.7845 22.9367 35.8296 22.0397 35.1683 20.955C34.5269 19.8995 33.8927 18.5289 33.9209 17.2732C33.9209 17.2524 33.9127 17.2325 33.898 17.2178C33.8833 17.2032 33.8633 17.1949 33.8426 17.1949C33.8218 17.1949 33.8018 17.2032 33.7871 17.2178C33.7725 17.2325 33.7642 17.2524 33.7642 17.2732V17.27Z" fill="black"/>
<path d="M38.0194 23.4488C39.2821 23.3513 40.4738 22.8268 41.3977 21.9619C42.3216 21.097 42.9224 19.9435 43.1009 18.6917C43.1145 18.5874 42.9641 18.5508 42.9494 18.6499C42.7799 19.8685 42.1989 20.9928 41.3024 21.837C40.406 22.6812 39.2478 23.1946 38.0194 23.2924C37.9149 23.3007 37.9149 23.4572 38.0194 23.4488Z" fill="black"/>
<path d="M36.2935 22.5133C36.3764 23.114 36.4739 23.7124 36.586 24.3083C36.6048 24.4074 36.7563 24.3656 36.7375 24.2676C36.6254 23.671 36.5275 23.0723 36.4439 22.4715C36.4303 22.3672 36.2799 22.4142 36.2935 22.5133Z" fill="black"/>
<path d="M40.1443 22.7041C40.0615 23.2882 39.9518 23.8667 39.8152 24.4397C39.7923 24.5377 39.9427 24.5795 39.9667 24.4814C40.106 23.9078 40.2154 23.3289 40.2948 22.7448C40.3094 22.6468 40.1579 22.604 40.1443 22.7041Z" fill="black"/>
<path d="M36.7312 24.7255C37.5586 25.4702 38.7893 25.7967 39.669 24.9466C39.7421 24.8757 39.6314 24.7651 39.5582 24.836C38.7371 25.6298 37.6036 25.3002 36.842 24.6149C36.7678 24.5482 36.656 24.6587 36.7312 24.7255Z" fill="black"/>
<path d="M33.9951 18.8763C33.2303 19.2497 32.7122 18.119 32.569 17.561C32.4988 17.3008 32.4702 17.0312 32.4844 16.7621C32.5157 16.3261 32.8657 15.6638 33.4111 16.0497C33.4936 16.1081 33.572 15.9725 33.4905 15.9141C33.3547 15.818 33.1881 15.7755 33.0228 15.7948C32.8575 15.8141 32.7051 15.8937 32.5951 16.0184C32.2911 16.3386 32.2974 16.8685 32.3528 17.27C32.4572 18.0147 33.0841 19.4937 34.0745 19.0119C34.1654 18.9681 34.086 18.8325 33.9951 18.8763Z" fill="black"/>
<path d="M42.9588 19.2194C43.8552 20.0215 44.7035 18.1284 44.8999 17.5131C45.0326 17.1063 45.1883 16.4377 44.8258 16.0883C44.481 15.7556 44.0036 15.9934 43.6839 16.2218C43.6034 16.2802 43.6839 16.4158 43.7633 16.3574C43.8398 16.2983 43.9205 16.2446 44.0046 16.1968C44.0837 16.1503 44.1728 16.1233 44.2644 16.1179C44.3561 16.1125 44.4477 16.1289 44.5318 16.1658C44.6158 16.2026 44.6899 16.2589 44.7479 16.3299C44.8059 16.401 44.8462 16.4847 44.8655 16.5743C44.9501 16.881 44.8268 17.2627 44.7244 17.5537C44.5761 17.9793 43.8051 19.7607 43.0696 19.1057C42.9944 19.039 42.8836 19.1495 42.9588 19.2163V19.2194Z" fill="black"/>
<path d="M38.1865 15.1141C38.005 16.6649 37.9878 18.2304 38.1353 19.7847C38.1427 19.8546 38.245 19.9015 38.2816 19.8244L38.804 18.7292C38.8478 18.6395 38.712 18.5592 38.6692 18.651L38.1468 19.7451L38.292 19.7847C38.1445 18.2304 38.1617 16.6649 38.3432 15.1141C38.3558 15.0098 38.1991 15.0098 38.1865 15.1141Z" fill="black"/>
<path d="M37.3716 20.4189C38.5699 21.1041 39.9051 20.4377 40.44 19.2538C40.4807 19.1631 40.346 19.0828 40.3042 19.1746C39.8079 20.2749 38.5793 20.9289 37.451 20.2833C37.433 20.2728 37.4116 20.2698 37.3914 20.2751C37.3712 20.2804 37.354 20.2935 37.3434 20.3115C37.3329 20.3294 37.33 20.3509 37.3352 20.371C37.3405 20.3911 37.3536 20.4084 37.3716 20.4189Z" fill="black"/>
<path d="M35.7446 18.0596H35.7654C35.786 18.0596 35.8059 18.0513 35.8205 18.0367C35.8351 18.022 35.8433 18.0021 35.8433 17.9814C35.8433 17.9606 35.8351 17.9407 35.8205 17.9261C35.8059 17.9114 35.786 17.9031 35.7654 17.9031H35.7446C35.7239 17.9031 35.7041 17.9114 35.6895 17.9261C35.6749 17.9407 35.6666 17.9606 35.6666 17.9814C35.6666 18.0021 35.6749 18.022 35.6895 18.0367C35.7041 18.0513 35.7239 18.0596 35.7446 18.0596Z" fill="black"/>
<path d="M36.6226 17.5579V17.5788C36.6226 17.5995 36.6308 17.6194 36.6454 17.6341C36.66 17.6487 36.6798 17.657 36.7005 17.657C36.7212 17.657 36.741 17.6487 36.7556 17.6341C36.7702 17.6194 36.7784 17.5995 36.7784 17.5788V17.5579C36.7784 17.5372 36.7702 17.5173 36.7556 17.5026C36.741 17.4879 36.7212 17.4797 36.7005 17.4797C36.6798 17.4797 36.66 17.4879 36.6454 17.5026C36.6308 17.5173 36.6226 17.5372 36.6226 17.5579Z" fill="black"/>
<path d="M36.7005 18.5905C36.7212 18.5905 36.741 18.5822 36.7556 18.5676C36.7702 18.5529 36.7784 18.533 36.7784 18.5123C36.7784 18.4915 36.7702 18.4716 36.7556 18.4569C36.741 18.4423 36.7212 18.434 36.7005 18.434C36.6798 18.434 36.66 18.4423 36.6454 18.4569C36.6308 18.4716 36.6226 18.4915 36.6226 18.5123C36.6226 18.533 36.6308 18.5529 36.6454 18.5676C36.66 18.5822 36.6798 18.5905 36.7005 18.5905Z" fill="black"/>
<path d="M40.1648 17.5131C40.1855 17.5131 40.2053 17.5048 40.2199 17.4901C40.2345 17.4755 40.2428 17.4556 40.2428 17.4348C40.2428 17.4141 40.2345 17.3942 40.2199 17.3795C40.2053 17.3648 40.1855 17.3566 40.1648 17.3566C40.1442 17.3566 40.1243 17.3648 40.1097 17.3795C40.0951 17.3942 40.0869 17.4141 40.0869 17.4348C40.0869 17.4556 40.0951 17.4755 40.1097 17.4901C40.1243 17.5048 40.1442 17.5131 40.1648 17.5131Z" fill="black"/>
<path d="M41.3339 17.4661C41.3546 17.4661 41.3744 17.4579 41.389 17.4432C41.4036 17.4285 41.4118 17.4086 41.4118 17.3879C41.4118 17.3671 41.4036 17.3472 41.389 17.3326C41.3744 17.3179 41.3546 17.3097 41.3339 17.3097C41.3132 17.3097 41.2934 17.3179 41.2788 17.3326C41.2642 17.3472 41.256 17.3671 41.256 17.3879C41.256 17.4086 41.2642 17.4285 41.2788 17.4432C41.2934 17.4579 41.3132 17.4661 41.3339 17.4661Z" fill="black"/>
<path d="M40.8878 18.166C40.9084 18.166 40.9283 18.1577 40.9429 18.1431C40.9575 18.1284 40.9657 18.1085 40.9657 18.0878C40.9657 18.067 40.9575 18.0471 40.9429 18.0324C40.9283 18.0178 40.9084 18.0095 40.8878 18.0095C40.8671 18.0095 40.8473 18.0178 40.8327 18.0324C40.8181 18.0471 40.8098 18.067 40.8098 18.0878C40.8098 18.1085 40.8181 18.1284 40.8327 18.1431C40.8473 18.1577 40.8671 18.166 40.8878 18.166Z" fill="black"/>
<path d="M35.7116 16.3657C36.1044 15.7931 36.937 15.5908 37.4019 16.2051C37.4615 16.2844 37.5983 16.2051 37.5378 16.1258C37.0008 15.4166 36.0427 15.6043 35.5768 16.2865C35.5193 16.3699 35.6552 16.4481 35.7116 16.3657Z" fill="black"/>
<path d="M39.7745 16.0424C39.8967 15.9334 40.0407 15.8515 40.1969 15.802C40.3531 15.7526 40.518 15.7367 40.6808 15.7556C40.8435 15.7744 41.0005 15.8274 41.1412 15.9112C41.282 15.995 41.4033 16.1076 41.4973 16.2416C41.5558 16.3219 41.6916 16.2416 41.6321 16.1624C41.5254 16.0085 41.3871 15.879 41.2264 15.7826C41.0657 15.6862 40.8863 15.6251 40.7001 15.6033C40.5139 15.5814 40.3252 15.5995 40.1465 15.6561C39.9678 15.7128 39.8033 15.8068 39.6638 15.9318C39.5865 15.9965 39.6972 16.1071 39.7745 16.0424Z" fill="black"/>
<path d="M35.955 14.263C36.2005 13.705 37.0258 13.0969 37.4719 13.826C37.5242 13.9126 37.66 13.8333 37.6067 13.7478C37.1011 12.9207 36.1211 13.5006 35.8202 14.1848C35.7795 14.2755 35.9142 14.3559 35.955 14.263Z" fill="black"/>
<path d="M39.7808 13.825C39.9094 13.6702 40.0809 13.5568 40.2739 13.4991C40.4668 13.4414 40.6725 13.4419 40.8652 13.5006C41.2267 13.6164 41.492 13.9741 41.701 14.2714C41.7584 14.3527 41.8953 14.2714 41.8368 14.1921C41.5714 13.8166 41.2538 13.4151 40.7795 13.317C40.5769 13.2798 40.3679 13.297 40.1741 13.3668C39.9803 13.4366 39.8085 13.5566 39.6763 13.7144C39.6094 13.7895 39.7202 13.9001 39.787 13.825H39.7808Z" fill="black"/>
<path d="M38.1207 44.6762C36.071 43.677 32.7926 41.6515 30.7032 37.8612C30.2341 37.0121 27.078 31.3246 29.4578 28.9956C30.7617 27.7168 33.3766 27.6636 35.254 28.8329C37.5879 30.2868 37.7373 32.9788 37.7457 33.2135C37.7269 33.0049 37.5158 30.2211 39.6962 28.5085C41.6812 26.944 44.598 27.1046 46.0345 28.4542C48.4207 30.6967 45.9384 35.8784 45.2782 37.2646C43.383 41.2405 40.182 43.5132 38.1207 44.6762Z" fill="#EC615B" stroke="black" stroke-width="2" stroke-miterlimit="10"/>
</g>
<defs>
<clipPath id="clip0_19:2">
<rect width="54.2903" height="59" fill="white" transform="translate(11.0591 9)"/>
</clipPath>
</defs>
</svg>
