<svg width="24" height="24" viewBox="0 0 24 24" fill="none" xmlns="http://www.w3.org/2000/svg">
<path d="M12 24C18.6274 24 24 18.6274 24 12C24 5.37258 18.6274 0 12 0C5.37258 0 0 5.37258 0 12C0 18.6274 5.37258 24 12 24Z" fill="url(#paint0_linear_64_4)"/>
<path d="M16.1943 12.1592C14.5935 12.1592 13.2911 13.4615 13.2911 15.0624C13.2911 16.6711 14.5921 17.9655 16.1943 17.9655C17.7951 17.9655 19.0974 16.6632 19.0974 15.0624C19.0974 13.4745 17.807 12.1592 16.1943 12.1592V12.1592ZM16.609 15.8918C16.609 16.1208 16.4233 16.3066 16.1943 16.3066C15.9652 16.3066 15.7795 16.1209 15.7795 15.8918V15.2143C15.6209 15.306 15.4146 15.2839 15.2789 15.1482C15.1169 14.9863 15.1169 14.7237 15.2789 14.5617L15.901 13.9396C16.0196 13.821 16.1979 13.7855 16.3529 13.8497C16.5079 13.9139 16.609 14.0651 16.609 14.2329V15.8918H16.609ZM16.1943 11.3297C16.8042 11.3297 17.3804 11.4768 17.8893 11.7373C18.1077 11.2166 18.2127 10.6934 18.2127 10.1436C18.2127 9.14373 17.8269 8.19733 17.1265 7.47873C16.4189 6.75273 15.4791 6.35294 14.4801 6.35294C13.3712 6.35294 12.4448 6.84498 11.8009 7.77597C11.7163 7.89831 11.642 8.02065 11.5769 8.13925C11.5119 8.02065 11.4376 7.89831 11.353 7.77597C10.7091 6.84503 9.78266 6.35294 8.67383 6.35294C7.67483 6.35294 6.73499 6.75273 6.02736 7.47873C5.32691 8.19733 4.94118 9.14373 4.94118 10.1436C4.94118 12.4841 6.8428 14.0881 9.72126 16.516C10.227 16.9426 10.7501 17.3837 11.3056 17.8644C11.3835 17.9318 11.4802 17.9655 11.5769 17.9655C11.6737 17.9655 11.7704 17.9318 11.8483 17.8644C12.2307 17.5334 12.5975 17.2215 12.9541 16.92C12.6329 16.3612 12.4617 15.7252 12.4617 15.0624C12.4617 13.0042 14.1361 11.3297 16.1943 11.3297V11.3297Z" fill="url(#paint1_linear_64_4)"/>
<defs>
<linearGradient id="paint0_linear_64_4" x1="12" y1="24" x2="12" y2="0" gradientUnits="userSpaceOnUse">
<stop stop-color="#FFC2CC"/>
<stop offset="1" stop-color="#FFF2F4"/>
</linearGradient>
<linearGradient id="paint1_linear_64_4" x1="12.0193" y1="6.35294" x2="12.0193" y2="17.9655" gradientUnits="userSpaceOnUse">
<stop stop-color="#FD3A84"/>
<stop offset="1" stop-color="#FFA68D"/>
</linearGradient>
</defs>
</svg>
