<svg width="33" height="33" viewBox="0 0 33 33" fill="none" xmlns="http://www.w3.org/2000/svg">
<path opacity="0.4" d="M16.192 30.0265C13.0528 28.0875 10.1347 25.8012 7.49091 23.2094C5.62451 21.3589 4.19913 19.0994 3.32367 16.6035C1.75942 11.7359 3.5803 6.17303 8.66409 4.52155C11.3474 3.67886 14.2658 4.19616 16.5098 5.91227V5.91227C18.7546 4.19808 21.672 3.68094 24.3554 4.52155C29.4392 6.17303 31.2723 11.7359 29.7081 16.6035C28.8397 19.097 27.4228 21.3564 25.5653 23.2094C22.9191 25.7984 20.0013 28.0845 16.8642 30.0265L16.522 30.25L16.192 30.0265Z" fill="white"/>
<path d="M16.515 30.25L16.192 30.0265C13.0489 28.0877 10.1267 25.8014 7.47865 23.2094C5.6034 21.3615 4.16953 19.1018 3.28696 16.6035C1.73494 11.7359 3.55582 6.17304 8.63961 4.52155C11.3229 3.67886 14.2798 4.19656 16.515 5.92704V30.25Z" fill="white"/>
<path d="M25.0669 13.7489V13.7489C24.7907 13.7311 24.5334 13.5931 24.3555 13.3672C24.1775 13.1412 24.0944 12.8472 24.1256 12.554V12.554C24.1555 11.5882 23.606 10.7092 22.7586 10.3672C22.2213 10.2205 21.8959 9.63857 22.0303 9.06467C22.1578 8.5 22.6866 8.1489 23.218 8.27599C23.2851 8.28712 23.3497 8.31143 23.4085 8.34769C25.1076 9.00155 26.2077 10.7613 26.1201 12.6854C26.1174 12.977 26.0037 13.255 25.8051 13.4555C25.6065 13.656 25.3401 13.7619 25.0669 13.7489Z" fill="white"/>
</svg>
