<svg width="25" height="25" viewBox="0 0 25 25" fill="none" xmlns="http://www.w3.org/2000/svg">
<g clip-path="url(#clip0_70_22)">
<path d="M9.33854 25H4.16667C3.0616 25 2.00179 24.561 1.22039 23.7796C0.438987 22.9982 0 21.9384 0 20.8333V15.625C0 14.5199 0.438987 13.4601 1.22039 12.6787C2.00179 11.8973 3.0616 11.4583 4.16667 11.4583H13.3927C13.9565 11.4586 14.5106 11.6044 15.0015 11.8816C15.4924 12.1588 15.9034 12.558 16.1948 13.0406L19.5458 9.35833C19.823 9.05353 20.1575 8.80634 20.5303 8.6309C20.9031 8.45545 21.3068 8.35519 21.7183 8.33584C22.1298 8.31649 22.5411 8.37844 22.9287 8.51814C23.3163 8.65783 23.6725 8.87255 23.9771 9.15C24.5848 9.70826 24.9489 10.4828 24.9912 11.3069C25.0335 12.131 24.7505 12.9387 24.2031 13.5562L17.1198 21.5115C16.1418 22.6083 14.943 23.4862 13.602 24.0874C12.261 24.6886 10.8081 24.9996 9.33854 25ZM4.16667 13.5417C3.61413 13.5417 3.08423 13.7612 2.69353 14.1519C2.30283 14.5426 2.08333 15.0725 2.08333 15.625V20.8333C2.08333 21.3859 2.30283 21.9158 2.69353 22.3065C3.08423 22.6972 3.61413 22.9167 4.16667 22.9167H9.33854C10.5135 22.9162 11.675 22.6674 12.7471 22.1867C13.8191 21.706 14.7775 21.0041 15.5594 20.1271L22.6479 12.1708C22.832 11.9635 22.9272 11.6922 22.9132 11.4154C22.8992 11.1385 22.777 10.8783 22.5729 10.6906C22.3654 10.5041 22.0934 10.4058 21.8146 10.4167C21.6764 10.4225 21.5407 10.4558 21.4155 10.5147C21.2903 10.5735 21.1781 10.6567 21.0854 10.7594L16.475 15.8333C16.2726 16.3935 15.9219 16.8882 15.4603 17.2647C14.9987 17.6411 14.4436 17.8852 13.8542 17.9708L8.47813 18.7396C8.20462 18.7788 7.92673 18.7078 7.7056 18.5421C7.48446 18.3765 7.33819 18.1298 7.29896 17.8562C7.25973 17.5827 7.33076 17.3049 7.49641 17.0837C7.66207 16.8626 7.90879 16.7163 8.18229 16.6771L13.5594 15.9094C13.8579 15.8676 14.1294 15.7142 14.3191 15.48C14.5088 15.2458 14.6025 14.9484 14.5813 14.6477C14.5602 14.3471 14.4257 14.0657 14.205 13.8604C13.9844 13.6551 13.6941 13.5412 13.3927 13.5417H4.16667ZM11.4583 9.45208C10.9862 9.45335 10.5279 9.29309 10.1594 8.99792C8.37604 7.56667 6.25 5.41667 6.25 3.33333C6.22443 2.47746 6.53884 1.6463 7.12446 1.02163C7.71009 0.396962 8.51926 0.0296377 9.375 0C10.1535 0.00303211 10.9004 0.308143 11.4583 0.851042C12.0163 0.308143 12.7632 0.00303211 13.5417 0C14.3974 0.0296377 15.2066 0.396962 15.7922 1.02163C16.3778 1.6463 16.6922 2.47746 16.6667 3.33333C16.6667 5.41667 14.5406 7.56667 12.7563 8.99896C12.3879 9.29354 11.93 9.45341 11.4583 9.45208V9.45208ZM9.375 2.08333C9.07224 2.11371 8.79349 2.26169 8.5987 2.49544C8.4039 2.7292 8.30862 3.03006 8.33333 3.33333C8.33333 4.27083 9.53229 5.82292 11.4646 7.37396C13.3844 5.82292 14.5833 4.27083 14.5833 3.33333C14.6081 3.03006 14.5128 2.7292 14.318 2.49544C14.1232 2.26169 13.8444 2.11371 13.5417 2.08333C13.2389 2.11371 12.9602 2.26169 12.7654 2.49544C12.5706 2.7292 12.4753 3.03006 12.5 3.33333C12.5 3.6096 12.3903 3.87455 12.1949 4.0699C11.9996 4.26525 11.7346 4.375 11.4583 4.375C11.1821 4.375 10.9171 4.26525 10.7218 4.0699C10.5264 3.87455 10.4167 3.6096 10.4167 3.33333C10.4414 3.03006 10.3461 2.7292 10.1513 2.49544C9.95651 2.26169 9.67776 2.11371 9.375 2.08333V2.08333Z" fill="white"/>
</g>
<defs>
<clipPath id="clip0_70_22">
<rect width="25" height="25" fill="white"/>
</clipPath>
</defs>
</svg>
