<svg width="34" height="34" viewBox="0 0 34 34" fill="none" xmlns="http://www.w3.org/2000/svg">
<path d="M12.9536 29.4413V25.0966C12.9536 23.9956 13.8489 23.1011 14.9578 23.0942H19.0296C20.1434 23.0942 21.0464 23.9907 21.0464 25.0966V25.0966V29.4287C21.0464 30.3836 21.8224 31.1597 22.7842 31.1666H25.5621C26.8595 31.1699 28.1049 30.6606 29.0235 29.751C29.9421 28.8414 30.4584 27.6062 30.4584 26.3181V13.9766C30.4583 12.9361 29.9938 11.9492 29.1899 11.2816L19.7526 3.78853C18.1029 2.4779 15.7468 2.52024 14.146 3.88927L4.91162 11.2816C4.06974 11.9295 3.56655 12.9194 3.54169 13.9766V26.3055C3.54169 28.9902 5.73381 31.1666 8.43793 31.1666H11.1524C11.6155 31.17 12.0608 30.9897 12.3894 30.6657C12.7181 30.3418 12.9029 29.9011 12.9029 29.4413H12.9536Z" fill="white"/>
</svg>
