<svg width="25" height="25" viewBox="0 0 25 25" fill="none" xmlns="http://www.w3.org/2000/svg">
<g clip-path="url(#clip0_68_10)">
<path d="M7.29167 0H4.16667C3.0616 0 2.00179 0.438987 1.22039 1.22039C0.438987 2.00179 0 3.0616 0 4.16667L0 7.29167C0 8.39674 0.438987 9.45654 1.22039 10.2379C2.00179 11.0193 3.0616 11.4583 4.16667 11.4583H7.29167C8.39674 11.4583 9.45654 11.0193 10.2379 10.2379C11.0193 9.45654 11.4583 8.39674 11.4583 7.29167V4.16667C11.4583 3.0616 11.0193 2.00179 10.2379 1.22039C9.45654 0.438987 8.39674 0 7.29167 0V0ZM9.375 7.29167C9.375 7.8442 9.15551 8.37411 8.76481 8.76481C8.37411 9.15551 7.8442 9.375 7.29167 9.375H4.16667C3.61413 9.375 3.08423 9.15551 2.69353 8.76481C2.30283 8.37411 2.08333 7.8442 2.08333 7.29167V4.16667C2.08333 3.61413 2.30283 3.08423 2.69353 2.69353C3.08423 2.30283 3.61413 2.08333 4.16667 2.08333H7.29167C7.8442 2.08333 8.37411 2.30283 8.76481 2.69353C9.15551 3.08423 9.375 3.61413 9.375 4.16667V7.29167Z" fill="white"/>
<path d="M7.29167 13.4584H4.16667C3.0616 13.4584 2.00179 13.8974 1.22039 14.6788C0.438987 15.4602 0 16.52 0 17.625L0 20.75C0 21.8551 0.438987 22.9149 1.22039 23.6963C2.00179 24.4777 3.0616 24.9167 4.16667 24.9167H7.29167C8.39674 24.9167 9.45654 24.4777 10.2379 23.6963C11.0193 22.9149 11.4583 21.8551 11.4583 20.75V17.625C11.4583 16.52 11.0193 15.4602 10.2379 14.6788C9.45654 13.8974 8.39674 13.4584 7.29167 13.4584V13.4584ZM9.375 20.75C9.375 21.3026 9.15551 21.8325 8.76481 22.2232C8.37411 22.6139 7.8442 22.8334 7.29167 22.8334H4.16667C3.61413 22.8334 3.08423 22.6139 2.69353 22.2232C2.30283 21.8325 2.08333 21.3026 2.08333 20.75V17.625C2.08333 17.0725 2.30283 16.5426 2.69353 16.1519C3.08423 15.7612 3.61413 15.5417 4.16667 15.5417H7.29167C7.8442 15.5417 8.37411 15.7612 8.76481 16.1519C9.15551 16.5426 9.375 17.0725 9.375 17.625V20.75Z" fill="white"/>
<path d="M19.75 13.4584H16.625C15.5199 13.4584 14.4601 13.8974 13.6787 14.6788C12.8973 15.4602 12.4583 16.52 12.4583 17.625V20.75C12.4583 21.8551 12.8973 22.9149 13.6787 23.6963C14.4601 24.4777 15.5199 24.9167 16.625 24.9167H19.75C20.8551 24.9167 21.9149 24.4777 22.6963 23.6963C23.4777 22.9149 23.9167 21.8551 23.9167 20.75V17.625C23.9167 16.52 23.4777 15.4602 22.6963 14.6788C21.9149 13.8974 20.8551 13.4584 19.75 13.4584V13.4584ZM21.8333 20.75C21.8333 21.3026 21.6138 21.8325 21.2231 22.2232C20.8324 22.6139 20.3025 22.8334 19.75 22.8334H16.625C16.0725 22.8334 15.5426 22.6139 15.1519 22.2232C14.7612 21.8325 14.5417 21.3026 14.5417 20.75V17.625C14.5417 17.0725 14.7612 16.5426 15.1519 16.1519C15.5426 15.7612 16.0725 15.5417 16.625 15.5417H19.75C20.3025 15.5417 20.8324 15.7612 21.2231 16.1519C21.6138 16.5426 21.8333 17.0725 21.8333 17.625V20.75Z" fill="white"/>
<path d="M13.5 7.29163H16.625V10.4166C16.625 10.6929 16.7347 10.9578 16.9301 11.1532C17.1254 11.3485 17.3904 11.4583 17.6667 11.4583C17.9429 11.4583 18.2079 11.3485 18.4032 11.1532C18.5986 10.9578 18.7083 10.6929 18.7083 10.4166V7.29163H21.8333C22.1096 7.29163 22.3745 7.18188 22.5699 6.98653C22.7652 6.79118 22.875 6.52623 22.875 6.24996C22.875 5.97369 22.7652 5.70874 22.5699 5.51339C22.3745 5.31804 22.1096 5.20829 21.8333 5.20829H18.7083V2.08329C18.7083 1.80703 18.5986 1.54207 18.4032 1.34672C18.2079 1.15137 17.9429 1.04163 17.6667 1.04163C17.3904 1.04163 17.1254 1.15137 16.9301 1.34672C16.7347 1.54207 16.625 1.80703 16.625 2.08329V5.20829H13.5C13.2237 5.20829 12.9588 5.31804 12.7634 5.51339C12.5681 5.70874 12.4583 5.97369 12.4583 6.24996C12.4583 6.52623 12.5681 6.79118 12.7634 6.98653C12.9588 7.18188 13.2237 7.29163 13.5 7.29163V7.29163Z" fill="white"/>
</g>
<defs>
<clipPath id="clip0_68_10">
<rect width="25" height="25" fill="white"/>
</clipPath>
</defs>
</svg>
