<svg width="14" height="14" viewBox="0 0 14 14" fill="none" xmlns="http://www.w3.org/2000/svg">
<path d="M9.91666 1.16667H4.08332C2.47249 1.16667 1.16666 2.47251 1.16666 4.08334V9.91667C1.16666 11.5275 2.47249 12.8333 4.08332 12.8333H9.91666C11.5275 12.8333 12.8333 11.5275 12.8333 9.91667V4.08334C12.8333 2.47251 11.5275 1.16667 9.91666 1.16667Z" stroke="white" stroke-linecap="round" stroke-linejoin="round"/>
<path d="M9.33333 6.63251C9.40532 7.11798 9.32239 7.6138 9.09635 8.04943C8.87031 8.48507 8.51266 8.83833 8.07427 9.05898C7.63589 9.27964 7.13909 9.35644 6.65453 9.27847C6.16998 9.2005 5.72235 8.97172 5.37531 8.62469C5.02828 8.27765 4.7995 7.83002 4.72153 7.34547C4.64356 6.86091 4.72036 6.36411 4.94102 5.92573C5.16167 5.48734 5.51493 5.12969 5.95057 4.90365C6.3862 4.67761 6.88202 4.59468 7.36749 4.66667C7.8627 4.74011 8.32115 4.97086 8.67515 5.32485C9.02914 5.67885 9.25989 6.1373 9.33333 6.63251Z" stroke="white" stroke-linecap="round" stroke-linejoin="round"/>
<path d="M10.2083 3.79167H10.2158" stroke="white" stroke-linecap="round" stroke-linejoin="round"/>
</svg>
