<svg width="35" height="35" viewBox="0 0 35 35" fill="none" xmlns="http://www.w3.org/2000/svg">
<path opacity="0.4" d="M24.3185 2.91669H10.6944C5.72959 2.91669 2.91663 5.72965 2.91663 10.6945V24.3056C2.91663 29.2704 5.72959 32.0834 10.6944 32.0834H24.3185C29.2833 32.0834 32.0833 29.2704 32.0833 24.3056V10.6945C32.0833 5.72965 29.2833 2.91669 24.3185 2.91669" fill="white"/>
<path d="M10.746 13.6631C10.0848 13.6631 9.54041 14.2075 9.54041 14.8816V24.902C9.54041 25.5631 10.0848 26.1075 10.746 26.1075C11.42 26.1075 11.9645 25.5631 11.9645 24.902V14.8816C11.9645 14.2075 11.42 13.6631 10.746 13.6631" fill="white"/>
<path d="M17.5515 8.87976C16.8904 8.87976 16.3459 9.42421 16.3459 10.0983V24.902C16.3459 25.5631 16.8904 26.1075 17.5515 26.1075C18.2256 26.1075 18.77 25.5631 18.77 24.902V10.0983C18.77 9.42421 18.2256 8.87976 17.5515 8.87976" fill="white"/>
<path d="M24.2665 18.952C23.5924 18.952 23.048 19.4965 23.048 20.1705V24.902C23.048 25.5631 23.5924 26.1076 24.2535 26.1076C24.9276 26.1076 25.472 25.5631 25.472 24.902V20.1705C25.472 19.4965 24.9276 18.952 24.2665 18.952" fill="white"/>
</svg>
