<svg width="25" height="25" viewBox="0 0 25 25" fill="none" xmlns="http://www.w3.org/2000/svg">
<g clip-path="url(#clip0_68_15)">
<path d="M23.9583 22.9167H5.20833C4.37953 22.9167 3.58468 22.5874 2.99862 22.0014C2.41257 21.4153 2.08333 20.6205 2.08333 19.7917V1.04167C2.08333 0.765399 1.97359 0.500447 1.77824 0.305097C1.58289 0.109747 1.31793 0 1.04167 0C0.765399 0 0.500447 0.109747 0.305097 0.305097C0.109747 0.500447 0 0.765399 0 1.04167L0 19.7917C0.00165402 21.1725 0.550919 22.4963 1.52731 23.4727C2.50371 24.4491 3.82751 24.9983 5.20833 25H23.9583C24.2346 25 24.4996 24.8903 24.6949 24.6949C24.8903 24.4996 25 24.2346 25 23.9583C25 23.6821 24.8903 23.4171 24.6949 23.2218C24.4996 23.0264 24.2346 22.9167 23.9583 22.9167Z" fill="white"/>
<path d="M6.25 20.8334C6.52627 20.8334 6.79122 20.7236 6.98657 20.5283C7.18192 20.3329 7.29167 20.068 7.29167 19.7917V12.5C7.29167 12.2238 7.18192 11.9588 6.98657 11.7635C6.79122 11.5681 6.52627 11.4584 6.25 11.4584C5.97374 11.4584 5.70879 11.5681 5.51344 11.7635C5.31808 11.9588 5.20834 12.2238 5.20834 12.5V19.7917C5.20834 20.068 5.31808 20.3329 5.51344 20.5283C5.70879 20.7236 5.97374 20.8334 6.25 20.8334Z" fill="white"/>
<path d="M10.4167 10.4167V19.7917C10.4167 20.0679 10.5264 20.3329 10.7218 20.5282C10.9171 20.7236 11.1821 20.8333 11.4583 20.8333C11.7346 20.8333 11.9995 20.7236 12.1949 20.5282C12.3902 20.3329 12.5 20.0679 12.5 19.7917V10.4167C12.5 10.1404 12.3902 9.87545 12.1949 9.6801C11.9995 9.48475 11.7346 9.375 11.4583 9.375C11.1821 9.375 10.9171 9.48475 10.7218 9.6801C10.5264 9.87545 10.4167 10.1404 10.4167 10.4167Z" fill="white"/>
<path d="M15.625 13.5417V19.7917C15.625 20.0679 15.7347 20.3329 15.9301 20.5282C16.1254 20.7236 16.3904 20.8333 16.6667 20.8333C16.9429 20.8333 17.2079 20.7236 17.4032 20.5282C17.5986 20.3329 17.7083 20.0679 17.7083 19.7917V13.5417C17.7083 13.2654 17.5986 13.0004 17.4032 12.8051C17.2079 12.6097 16.9429 12.5 16.6667 12.5C16.3904 12.5 16.1254 12.6097 15.9301 12.8051C15.7347 13.0004 15.625 13.2654 15.625 13.5417Z" fill="white"/>
<path d="M20.8333 9.37504V19.7917C20.8333 20.068 20.9431 20.3329 21.1384 20.5283C21.3338 20.7236 21.5987 20.8334 21.875 20.8334C22.1513 20.8334 22.4162 20.7236 22.6116 20.5283C22.8069 20.3329 22.9167 20.068 22.9167 19.7917V9.37504C22.9167 9.09877 22.8069 8.83382 22.6116 8.63847C22.4162 8.44312 22.1513 8.33337 21.875 8.33337C21.5987 8.33337 21.3338 8.44312 21.1384 8.63847C20.9431 8.83382 20.8333 9.09877 20.8333 9.37504Z" fill="white"/>
<path d="M6.25 9.37502C6.52625 9.37496 6.79116 9.26517 6.98646 9.06981L10.7219 5.33439C10.9204 5.14525 11.1841 5.03975 11.4583 5.03975C11.7326 5.03975 11.9963 5.14525 12.1948 5.33439L14.4573 7.59689C15.0433 8.18274 15.838 8.51185 16.6667 8.51185C17.4953 8.51185 18.29 8.18274 18.8761 7.59689L24.6948 1.77814C24.8845 1.58168 24.9895 1.31855 24.9872 1.04543C24.9848 0.772311 24.8752 0.511048 24.6821 0.317914C24.489 0.124781 24.2277 0.0152301 23.9546 0.0128568C23.6815 0.0104834 23.4183 0.115478 23.2219 0.305226L17.4031 6.12293C17.2078 6.31822 16.9429 6.42792 16.6667 6.42792C16.3905 6.42792 16.1256 6.31822 15.9302 6.12293L13.6677 3.86148C13.0817 3.27563 12.287 2.94652 11.4583 2.94652C10.6297 2.94652 9.83499 3.27563 9.24896 3.86148L5.51355 7.59689C5.36791 7.74257 5.26874 7.92816 5.22856 8.13019C5.18839 8.33223 5.20902 8.54164 5.28784 8.73195C5.36666 8.92226 5.50014 9.08493 5.6714 9.19939C5.84266 9.31386 6.04401 9.37497 6.25 9.37502V9.37502Z" fill="white"/>
</g>
<defs>
<clipPath id="clip0_68_15">
<rect width="25" height="25" fill="white"/>
</clipPath>
</defs>
</svg>
