<svg width="28" height="28" viewBox="0 0 28 28" fill="none" xmlns="http://www.w3.org/2000/svg">
<path opacity="0.4" d="M19.4547 2.33334H8.55547C4.58362 2.33334 2.33325 4.58371 2.33325 8.55557V19.4445C2.33325 23.4163 4.58362 25.6667 8.55547 25.6667H19.4547C23.4266 25.6667 25.6666 23.4163 25.6666 19.4445V8.55557C25.6666 4.58371 23.4266 2.33334 19.4547 2.33334" fill="white"/>
<path d="M8.59677 10.9305C8.06788 10.9305 7.63232 11.366 7.63232 11.9053V19.9216C7.63232 20.4505 8.06788 20.886 8.59677 20.886C9.13603 20.886 9.57158 20.4505 9.57158 19.9216V11.9053C9.57158 11.366 9.13603 10.9305 8.59677 10.9305" fill="white"/>
<path d="M14.0411 7.10382C13.5122 7.10382 13.0767 7.53938 13.0767 8.07864V19.9216C13.0767 20.4505 13.5122 20.886 14.0411 20.886C14.5804 20.886 15.0159 20.4505 15.0159 19.9216V8.07864C15.0159 7.53938 14.5804 7.10382 14.0411 7.10382" fill="white"/>
<path d="M19.413 15.1616C18.8738 15.1616 18.4382 15.5971 18.4382 16.1364V19.9216C18.4382 20.4505 18.8738 20.886 19.4027 20.886C19.9419 20.886 20.3775 20.4505 20.3775 19.9216V16.1364C20.3775 15.5971 19.9419 15.1616 19.413 15.1616" fill="white"/>
</svg>
