<svg width="76" height="76" viewBox="0 0 76 76" fill="none" xmlns="http://www.w3.org/2000/svg">
<mask id="path-1-inside-1_94_413" fill="white">
<path d="M69.1422 29.7676C69.0012 29.7751 65.835 29.7291 63.5965 31.8294V22.3651C63.5969 21.6444 63.401 20.9372 63.03 20.3194C62.6589 19.7016 62.1266 19.1965 61.4903 18.8582C60.8539 18.52 60.1374 18.3614 59.4178 18.3994C58.6981 18.4375 58.0024 18.6707 57.4052 19.0742C57.3981 18.1744 57.0839 17.304 56.5146 16.6072C58.9846 14.1817 60.0905 11.8112 59.801 9.89186C59.614 8.66874 58.5541 5.84843 52.4044 5.96272C43.2309 6.15272 39.3597 15.3143 37.8501 20.903C36.3405 15.3187 32.4692 6.15272 23.3032 5.96272C17.2039 5.88554 16.0906 8.67022 15.908 9.89186C15.6112 11.8557 16.7764 14.2945 19.3711 16.7779C18.8827 17.4446 18.6158 18.2478 18.6081 19.0742C18.0111 18.671 17.3156 18.438 16.5962 18.4001C15.8768 18.3622 15.1606 18.5209 14.5245 18.8591C13.8885 19.1974 13.3565 19.7024 12.9857 20.3201C12.6149 20.9377 12.4193 21.6447 12.4198 22.3651V31.8324C10.168 29.7291 7.02405 29.7706 6.8578 29.7676C6.62877 29.7723 6.41071 29.8667 6.25054 30.0305C6.09037 30.1942 6.00088 30.4143 6.00132 30.6434V48.5806C6.00021 49.6638 6.24302 50.7332 6.71173 51.7097C7.18044 52.6862 7.86302 53.5446 8.70882 54.2212L14.9432 59.2236V68.2783C14.9432 68.5105 15.0355 68.7333 15.1997 68.8975C15.3639 69.0618 15.5867 69.1541 15.819 69.1541C16.0512 69.1541 16.274 69.0618 16.4382 68.8975C16.6025 68.7333 16.6948 68.5105 16.6948 68.2783V58.8109C16.6947 58.68 16.6651 58.5508 16.6083 58.4329C16.5516 58.315 16.469 58.2113 16.3667 58.1296L9.80428 52.8645C9.16246 52.3504 8.64464 51.6983 8.28926 50.9567C7.93387 50.2151 7.75004 49.403 7.75139 48.5806V31.586C8.68358 31.7181 10.1858 32.0951 11.2887 33.1847C11.8147 33.7089 12.2089 34.3504 12.4391 35.0565C12.4462 35.0849 12.4556 35.1127 12.4673 35.1396C12.6785 35.8326 12.7816 36.5541 12.773 37.2786V45.0819C12.7728 45.1969 12.7953 45.3107 12.8392 45.417C12.883 45.5232 12.9474 45.6198 13.0286 45.7011C13.1098 45.7825 13.2062 45.847 13.3124 45.891C13.4186 45.9351 13.5324 45.9577 13.6473 45.9577H13.6637C13.6503 45.9577 18.8798 45.9266 21.1182 49.7681C21.5066 50.5773 22.0195 51.3206 22.6382 51.9709C26.5644 56.148 34.393 57.0698 37.0886 57.2687V69.1719C37.0979 69.3977 37.1941 69.6112 37.3572 69.7677C37.5203 69.9242 37.7376 70.0116 37.9636 70.0116C38.1896 70.0116 38.4069 69.9242 38.57 69.7677C38.7331 69.6112 38.8294 69.3977 38.8387 69.1719V57.2731C41.4615 57.0876 49.3985 56.1866 53.3618 51.9709C53.9748 51.3257 54.4845 50.5897 54.8729 49.7889C57.089 45.9459 62.3096 45.9073 62.3408 45.9577H62.3526C62.5847 45.9566 62.8069 45.864 62.9711 45.7C63.1354 45.5361 63.2283 45.314 63.2299 45.0819V37.2786C63.2191 36.5575 63.3193 35.8391 63.5268 35.1485C63.5387 35.1173 63.549 35.0847 63.558 35.0535C63.7913 34.3473 64.1891 33.7068 64.7187 33.1847C65.8231 32.0951 67.3223 31.7181 68.2545 31.586V48.5806C68.2558 49.4028 68.0721 50.2148 67.717 50.9564C67.3619 51.6979 66.8445 52.3501 66.2031 52.8645L59.6451 58.1296C59.5429 58.2113 59.4603 58.315 59.4035 58.4329C59.3467 58.5508 59.3172 58.68 59.3171 58.8109V68.2901C59.3171 68.5224 59.4094 68.7452 59.5736 68.9094C59.7378 69.0737 59.9606 69.1659 60.1929 69.1659C60.4251 69.1659 60.6479 69.0737 60.8121 68.9094C60.9764 68.7452 61.0687 68.5224 61.0687 68.2901V59.2266L67.303 54.2242C68.1479 53.5469 68.8296 52.6883 69.2978 51.7119C69.7659 50.7356 70.0085 49.6664 70.0076 48.5836V30.6434C70.008 30.4128 69.9172 30.1914 69.7552 30.0274C69.5931 29.8633 69.3728 29.77 69.1422 29.7676V29.7676ZM51.5598 12.3723C51.4687 12.1592 51.2974 11.9906 51.0828 11.9031C50.8683 11.8155 50.6279 11.8161 50.4138 11.9047C50.1392 12.019 44.7732 14.3287 39.8644 20.327C41.4556 15.1777 45.0181 7.86569 52.4355 7.70983H52.7948C55.9119 7.70983 57.8283 8.60046 58.0628 10.1561C58.2632 11.492 57.331 13.4217 55.1282 15.5251C55.0139 15.6349 54.8937 15.7462 54.7719 15.8576L54.7586 15.8694C54.6354 15.9823 54.5077 16.0936 54.3771 16.2064C54.2554 16.3118 54.1292 16.4172 54.0015 16.5226L53.9481 16.5671C53.8145 16.6769 53.6794 16.7868 53.5399 16.8966C52.8749 17.4176 52.1342 17.9446 51.3133 18.4686C50.964 18.6932 50.6018 18.9169 50.2268 19.1395L50.2075 19.1499C49.8314 19.3726 49.4406 19.5947 49.0348 19.8164C47.8285 20.4755 46.4926 21.1187 45.027 21.7461C44.2037 22.0974 43.3373 22.4437 42.4279 22.7851C41.4858 23.1355 40.4962 23.4744 39.4591 23.8019C44.4778 16.3801 51.0194 13.5464 51.0892 13.5167C51.303 13.4269 51.4725 13.256 51.5606 13.0416C51.6488 12.8271 51.6485 12.5865 51.5598 12.3723ZM17.6255 10.1546C17.86 8.59304 19.7748 7.70835 22.892 7.70835H23.2527C30.8423 7.86569 34.3974 15.5191 35.9337 20.6818L36.0005 20.9119C30.9715 14.4801 25.2626 12.0234 24.9805 11.9047C24.768 11.822 24.5316 11.8254 24.3215 11.9144C24.1115 12.0033 23.9444 12.1706 23.8559 12.3808C23.7673 12.591 23.7643 12.8274 23.8473 13.0398C23.9304 13.2522 24.093 13.4239 24.3007 13.5182C24.3734 13.5479 30.8319 16.3266 35.8521 23.6832C35.0317 23.417 34.2401 23.1449 33.4771 22.8668C33.2648 22.7896 33.054 22.7109 32.8462 22.6323L32.8076 22.6174L32.2258 22.3933L32.1694 22.371C31.9808 22.2968 31.7938 22.2226 31.6083 22.1469L31.5593 22.1276L30.9655 21.8856C29.4693 21.2562 28.1056 20.6086 26.8746 19.9426C26.6935 19.8461 26.5169 19.7496 26.3432 19.6457L26.2808 19.6116C25.7405 19.3087 25.2264 19.0049 24.7386 18.7001C23.856 18.1522 23.0033 17.5576 22.184 16.9189C21.9079 16.7042 21.6446 16.4894 21.3943 16.2747L21.372 16.2554C21.1226 16.0416 20.8856 15.8289 20.661 15.6171C18.3884 13.4796 17.4206 11.5069 17.6255 10.1546ZM20.3359 45.8983C20.3359 46.0468 20.3359 46.1863 20.3359 46.3288C18.2578 44.7851 15.8101 44.3605 14.5231 44.2507V37.2786C14.5324 36.3948 14.4088 35.5146 14.1565 34.6676V22.3651C14.1488 22.0689 14.2005 21.7742 14.3086 21.4984C14.4166 21.2225 14.5788 20.9711 14.7855 20.7589C14.9923 20.5468 15.2394 20.3781 15.5124 20.263C15.7854 20.1479 16.0786 20.0885 16.3749 20.0885C16.6711 20.0885 16.9644 20.1479 17.2373 20.263C17.5103 20.3781 17.7574 20.5468 17.9642 20.7589C18.171 20.9711 18.3331 21.2225 18.4412 21.4984C18.5492 21.7742 18.6009 22.0689 18.5933 22.3651V33.2158C18.5933 33.4481 18.6855 33.6709 18.8498 33.8351C19.014 33.9994 19.2368 34.0916 19.469 34.0916C19.7013 34.0916 19.9241 33.9994 20.0883 33.8351C20.2526 33.6709 20.3448 33.4481 20.3448 33.2158V19.1143C20.3446 18.7011 20.4608 18.2962 20.6803 17.9461C21.9728 18.9917 23.3451 19.9347 24.7846 20.7664V33.5869C24.7797 33.7049 24.7988 33.8226 24.8406 33.933C24.8823 34.0434 24.946 34.1442 25.0277 34.2294C25.1095 34.3146 25.2076 34.3823 25.3162 34.4286C25.4248 34.4749 25.5416 34.4988 25.6596 34.4988C25.7777 34.4988 25.8945 34.4749 26.0031 34.4286C26.1117 34.3823 26.2098 34.3146 26.2915 34.2294C26.3733 34.1442 26.4369 34.0434 26.4787 33.933C26.5205 33.8226 26.5395 33.7049 26.5347 33.5869V21.7312C27.8884 22.4378 29.3679 23.1186 30.973 23.7737V33.5855C30.9681 33.7034 30.9871 33.8211 31.0289 33.9315C31.0707 34.0419 31.1344 34.1427 31.2161 34.2279C31.2978 34.3131 31.3959 34.3808 31.5045 34.4271C31.6131 34.4734 31.7299 34.4973 31.848 34.4973C31.966 34.4973 32.0829 34.4734 32.1915 34.4271C32.3 34.3808 32.3981 34.3131 32.4799 34.2279C32.5616 34.1427 32.6253 34.0419 32.6671 33.9315C32.7089 33.8211 32.7279 33.7034 32.723 33.5855V24.5308C32.723 24.5055 32.723 24.4803 32.723 24.4551C34.06 24.9499 35.4756 25.4194 36.9698 25.8637C37.0066 25.8943 37.0453 25.9226 37.0856 25.9483V35.6784C34.4271 35.7051 27.1002 36.1237 23.0672 39.8777C22.2248 40.6415 21.5479 41.5697 21.0781 42.6052C20.6084 43.6407 20.3558 44.7615 20.3359 45.8983ZM53.3306 48.9517C53.3143 48.9814 53.295 49.0111 53.2787 49.0408C53.2507 49.0913 53.2278 49.1445 53.2104 49.1996C52.9117 49.771 52.535 50.298 52.0912 50.7656C48.0759 55.0391 38.8401 55.529 38 55.5646C37.1539 55.529 27.933 55.0465 23.9118 50.7686C23.468 50.3037 23.0913 49.7791 22.7926 49.21C22.7743 49.1502 22.7499 49.0925 22.7198 49.0378C22.6976 48.9992 22.6738 48.9621 22.653 48.9235C22.2351 47.9918 22.0423 46.9748 22.0905 45.9548C22.1543 44.0251 22.8638 42.4561 24.2606 41.1573C27.8008 37.859 34.623 37.4463 37.0886 37.4211V41.1573C37.0979 41.3831 37.1941 41.5966 37.3572 41.7531C37.5203 41.9096 37.7376 41.997 37.9636 41.997C38.1896 41.997 38.4069 41.9096 38.57 41.7531C38.7331 41.5966 38.8294 41.3831 38.8387 41.1573V37.4255C41.2359 37.4493 48.1605 37.8293 51.7394 41.1573C53.1362 42.4561 53.8457 44.0265 53.9095 45.9577C53.9575 46.9871 53.7606 48.0132 53.3351 48.9517H53.3306ZM61.842 34.6676C61.5897 35.5146 61.4661 36.3948 61.4754 37.2786V44.2477C60.1869 44.3605 57.7422 44.7836 55.6596 46.3258C55.6596 46.1774 55.6596 46.0394 55.6596 45.8939C55.6409 44.7569 55.3892 43.6358 54.9199 42.5999C54.4506 41.5641 53.7738 40.6356 52.9313 39.8718C48.8998 36.1223 41.5729 35.6992 38.9144 35.6725V25.8029C40.4472 25.3437 41.8984 24.8563 43.268 24.3408C43.268 24.4031 43.2769 24.4655 43.2769 24.5293V33.584C43.2721 33.7019 43.2911 33.8196 43.3329 33.93C43.3747 34.0404 43.4384 34.1412 43.5201 34.2264C43.6018 34.3116 43.6999 34.3794 43.8085 34.4256C43.9171 34.4719 44.0339 34.4958 44.152 34.4958C44.27 34.4958 44.3868 34.4719 44.4954 34.4256C44.604 34.3794 44.7021 34.3116 44.7839 34.2264C44.8656 34.1412 44.9293 34.0404 44.9711 33.93C45.0128 33.8196 45.0319 33.7019 45.027 33.584V23.6476C46.6361 22.9841 48.1175 22.2864 49.4668 21.5694V33.5929C49.4668 33.8252 49.559 34.0479 49.7233 34.2122C49.8875 34.3764 50.1103 34.4687 50.3426 34.4687C50.5748 34.4687 50.7976 34.3764 50.9618 34.2122C51.1261 34.0479 51.2183 33.8252 51.2183 33.5929V20.5808C52.6195 19.7541 53.9536 18.8185 55.2083 17.7828C55.4987 18.1675 55.6551 18.6368 55.6537 19.1187V33.2203C55.6537 33.4526 55.7459 33.6753 55.9102 33.8396C56.0744 34.0038 56.2972 34.0961 56.5294 34.0961C56.7617 34.0961 56.9845 34.0038 57.1487 33.8396C57.3129 33.6753 57.4052 33.4526 57.4052 33.2203V22.3695C57.3815 22.0635 57.4212 21.7559 57.522 21.466C57.6228 21.1761 57.7824 20.9102 57.9909 20.6849C58.1993 20.4597 58.4521 20.2799 58.7333 20.157C59.0146 20.0341 59.3182 19.9706 59.6251 19.9706C59.932 19.9706 60.2356 20.0341 60.5169 20.157C60.7981 20.2799 61.0509 20.4597 61.2593 20.6849C61.4678 20.9102 61.6274 21.1761 61.7282 21.466C61.829 21.7559 61.8687 22.0635 61.845 22.3695L61.842 34.6676Z"/>
</mask>
<path d="M69.1422 29.7676C69.0012 29.7751 65.835 29.7291 63.5965 31.8294V22.3651C63.5969 21.6444 63.401 20.9372 63.03 20.3194C62.6589 19.7016 62.1266 19.1965 61.4903 18.8582C60.8539 18.52 60.1374 18.3614 59.4178 18.3994C58.6981 18.4375 58.0024 18.6707 57.4052 19.0742C57.3981 18.1744 57.0839 17.304 56.5146 16.6072C58.9846 14.1817 60.0905 11.8112 59.801 9.89186C59.614 8.66874 58.5541 5.84843 52.4044 5.96272C43.2309 6.15272 39.3597 15.3143 37.8501 20.903C36.3405 15.3187 32.4692 6.15272 23.3032 5.96272C17.2039 5.88554 16.0906 8.67022 15.908 9.89186C15.6112 11.8557 16.7764 14.2945 19.3711 16.7779C18.8827 17.4446 18.6158 18.2478 18.6081 19.0742C18.0111 18.671 17.3156 18.438 16.5962 18.4001C15.8768 18.3622 15.1606 18.5209 14.5245 18.8591C13.8885 19.1974 13.3565 19.7024 12.9857 20.3201C12.6149 20.9377 12.4193 21.6447 12.4198 22.3651V31.8324C10.168 29.7291 7.02405 29.7706 6.8578 29.7676C6.62877 29.7723 6.41071 29.8667 6.25054 30.0305C6.09037 30.1942 6.00088 30.4143 6.00132 30.6434V48.5806C6.00021 49.6638 6.24302 50.7332 6.71173 51.7097C7.18044 52.6862 7.86302 53.5446 8.70882 54.2212L14.9432 59.2236V68.2783C14.9432 68.5105 15.0355 68.7333 15.1997 68.8975C15.3639 69.0618 15.5867 69.1541 15.819 69.1541C16.0512 69.1541 16.274 69.0618 16.4382 68.8975C16.6025 68.7333 16.6948 68.5105 16.6948 68.2783V58.8109C16.6947 58.68 16.6651 58.5508 16.6083 58.4329C16.5516 58.315 16.469 58.2113 16.3667 58.1296L9.80428 52.8645C9.16246 52.3504 8.64464 51.6983 8.28926 50.9567C7.93387 50.2151 7.75004 49.403 7.75139 48.5806V31.586C8.68358 31.7181 10.1858 32.0951 11.2887 33.1847C11.8147 33.7089 12.2089 34.3504 12.4391 35.0565C12.4462 35.0849 12.4556 35.1127 12.4673 35.1396C12.6785 35.8326 12.7816 36.5541 12.773 37.2786V45.0819C12.7728 45.1969 12.7953 45.3107 12.8392 45.417C12.883 45.5232 12.9474 45.6198 13.0286 45.7011C13.1098 45.7825 13.2062 45.847 13.3124 45.891C13.4186 45.9351 13.5324 45.9577 13.6473 45.9577H13.6637C13.6503 45.9577 18.8798 45.9266 21.1182 49.7681C21.5066 50.5773 22.0195 51.3206 22.6382 51.9709C26.5644 56.148 34.393 57.0698 37.0886 57.2687V69.1719C37.0979 69.3977 37.1941 69.6112 37.3572 69.7677C37.5203 69.9242 37.7376 70.0116 37.9636 70.0116C38.1896 70.0116 38.4069 69.9242 38.57 69.7677C38.7331 69.6112 38.8294 69.3977 38.8387 69.1719V57.2731C41.4615 57.0876 49.3985 56.1866 53.3618 51.9709C53.9748 51.3257 54.4845 50.5897 54.8729 49.7889C57.089 45.9459 62.3096 45.9073 62.3408 45.9577H62.3526C62.5847 45.9566 62.8069 45.864 62.9711 45.7C63.1354 45.5361 63.2283 45.314 63.2299 45.0819V37.2786C63.2191 36.5575 63.3193 35.8391 63.5268 35.1485C63.5387 35.1173 63.549 35.0847 63.558 35.0535C63.7913 34.3473 64.1891 33.7068 64.7187 33.1847C65.8231 32.0951 67.3223 31.7181 68.2545 31.586V48.5806C68.2558 49.4028 68.0721 50.2148 67.717 50.9564C67.3619 51.6979 66.8445 52.3501 66.2031 52.8645L59.6451 58.1296C59.5429 58.2113 59.4603 58.315 59.4035 58.4329C59.3467 58.5508 59.3172 58.68 59.3171 58.8109V68.2901C59.3171 68.5224 59.4094 68.7452 59.5736 68.9094C59.7378 69.0737 59.9606 69.1659 60.1929 69.1659C60.4251 69.1659 60.6479 69.0737 60.8121 68.9094C60.9764 68.7452 61.0687 68.5224 61.0687 68.2901V59.2266L67.303 54.2242C68.1479 53.5469 68.8296 52.6883 69.2978 51.7119C69.7659 50.7356 70.0085 49.6664 70.0076 48.5836V30.6434C70.008 30.4128 69.9172 30.1914 69.7552 30.0274C69.5931 29.8633 69.3728 29.77 69.1422 29.7676V29.7676ZM51.5598 12.3723C51.4687 12.1592 51.2974 11.9906 51.0828 11.9031C50.8683 11.8155 50.6279 11.8161 50.4138 11.9047C50.1392 12.019 44.7732 14.3287 39.8644 20.327C41.4556 15.1777 45.0181 7.86569 52.4355 7.70983H52.7948C55.9119 7.70983 57.8283 8.60046 58.0628 10.1561C58.2632 11.492 57.331 13.4217 55.1282 15.5251C55.0139 15.6349 54.8937 15.7462 54.7719 15.8576L54.7586 15.8694C54.6354 15.9823 54.5077 16.0936 54.3771 16.2064C54.2554 16.3118 54.1292 16.4172 54.0015 16.5226L53.9481 16.5671C53.8145 16.6769 53.6794 16.7868 53.5399 16.8966C52.8749 17.4176 52.1342 17.9446 51.3133 18.4686C50.964 18.6932 50.6018 18.9169 50.2268 19.1395L50.2075 19.1499C49.8314 19.3726 49.4406 19.5947 49.0348 19.8164C47.8285 20.4755 46.4926 21.1187 45.027 21.7461C44.2037 22.0974 43.3373 22.4437 42.4279 22.7851C41.4858 23.1355 40.4962 23.4744 39.4591 23.8019C44.4778 16.3801 51.0194 13.5464 51.0892 13.5167C51.303 13.4269 51.4725 13.256 51.5606 13.0416C51.6488 12.8271 51.6485 12.5865 51.5598 12.3723ZM17.6255 10.1546C17.86 8.59304 19.7748 7.70835 22.892 7.70835H23.2527C30.8423 7.86569 34.3974 15.5191 35.9337 20.6818L36.0005 20.9119C30.9715 14.4801 25.2626 12.0234 24.9805 11.9047C24.768 11.822 24.5316 11.8254 24.3215 11.9144C24.1115 12.0033 23.9444 12.1706 23.8559 12.3808C23.7673 12.591 23.7643 12.8274 23.8473 13.0398C23.9304 13.2522 24.093 13.4239 24.3007 13.5182C24.3734 13.5479 30.8319 16.3266 35.8521 23.6832C35.0317 23.417 34.2401 23.1449 33.4771 22.8668C33.2648 22.7896 33.054 22.7109 32.8462 22.6323L32.8076 22.6174L32.2258 22.3933L32.1694 22.371C31.9808 22.2968 31.7938 22.2226 31.6083 22.1469L31.5593 22.1276L30.9655 21.8856C29.4693 21.2562 28.1056 20.6086 26.8746 19.9426C26.6935 19.8461 26.5169 19.7496 26.3432 19.6457L26.2808 19.6116C25.7405 19.3087 25.2264 19.0049 24.7386 18.7001C23.856 18.1522 23.0033 17.5576 22.184 16.9189C21.9079 16.7042 21.6446 16.4894 21.3943 16.2747L21.372 16.2554C21.1226 16.0416 20.8856 15.8289 20.661 15.6171C18.3884 13.4796 17.4206 11.5069 17.6255 10.1546ZM20.3359 45.8983C20.3359 46.0468 20.3359 46.1863 20.3359 46.3288C18.2578 44.7851 15.8101 44.3605 14.5231 44.2507V37.2786C14.5324 36.3948 14.4088 35.5146 14.1565 34.6676V22.3651C14.1488 22.0689 14.2005 21.7742 14.3086 21.4984C14.4166 21.2225 14.5788 20.9711 14.7855 20.7589C14.9923 20.5468 15.2394 20.3781 15.5124 20.263C15.7854 20.1479 16.0786 20.0885 16.3749 20.0885C16.6711 20.0885 16.9644 20.1479 17.2373 20.263C17.5103 20.3781 17.7574 20.5468 17.9642 20.7589C18.171 20.9711 18.3331 21.2225 18.4412 21.4984C18.5492 21.7742 18.6009 22.0689 18.5933 22.3651V33.2158C18.5933 33.4481 18.6855 33.6709 18.8498 33.8351C19.014 33.9994 19.2368 34.0916 19.469 34.0916C19.7013 34.0916 19.9241 33.9994 20.0883 33.8351C20.2526 33.6709 20.3448 33.4481 20.3448 33.2158V19.1143C20.3446 18.7011 20.4608 18.2962 20.6803 17.9461C21.9728 18.9917 23.3451 19.9347 24.7846 20.7664V33.5869C24.7797 33.7049 24.7988 33.8226 24.8406 33.933C24.8823 34.0434 24.946 34.1442 25.0277 34.2294C25.1095 34.3146 25.2076 34.3823 25.3162 34.4286C25.4248 34.4749 25.5416 34.4988 25.6596 34.4988C25.7777 34.4988 25.8945 34.4749 26.0031 34.4286C26.1117 34.3823 26.2098 34.3146 26.2915 34.2294C26.3733 34.1442 26.4369 34.0434 26.4787 33.933C26.5205 33.8226 26.5395 33.7049 26.5347 33.5869V21.7312C27.8884 22.4378 29.3679 23.1186 30.973 23.7737V33.5855C30.9681 33.7034 30.9871 33.8211 31.0289 33.9315C31.0707 34.0419 31.1344 34.1427 31.2161 34.2279C31.2978 34.3131 31.3959 34.3808 31.5045 34.4271C31.6131 34.4734 31.7299 34.4973 31.848 34.4973C31.966 34.4973 32.0829 34.4734 32.1915 34.4271C32.3 34.3808 32.3981 34.3131 32.4799 34.2279C32.5616 34.1427 32.6253 34.0419 32.6671 33.9315C32.7089 33.8211 32.7279 33.7034 32.723 33.5855V24.5308C32.723 24.5055 32.723 24.4803 32.723 24.4551C34.06 24.9499 35.4756 25.4194 36.9698 25.8637C37.0066 25.8943 37.0453 25.9226 37.0856 25.9483V35.6784C34.4271 35.7051 27.1002 36.1237 23.0672 39.8777C22.2248 40.6415 21.5479 41.5697 21.0781 42.6052C20.6084 43.6407 20.3558 44.7615 20.3359 45.8983ZM53.3306 48.9517C53.3143 48.9814 53.295 49.0111 53.2787 49.0408C53.2507 49.0913 53.2278 49.1445 53.2104 49.1996C52.9117 49.771 52.535 50.298 52.0912 50.7656C48.0759 55.0391 38.8401 55.529 38 55.5646C37.1539 55.529 27.933 55.0465 23.9118 50.7686C23.468 50.3037 23.0913 49.7791 22.7926 49.21C22.7743 49.1502 22.7499 49.0925 22.7198 49.0378C22.6976 48.9992 22.6738 48.9621 22.653 48.9235C22.2351 47.9918 22.0423 46.9748 22.0905 45.9548C22.1543 44.0251 22.8638 42.4561 24.2606 41.1573C27.8008 37.859 34.623 37.4463 37.0886 37.4211V41.1573C37.0979 41.3831 37.1941 41.5966 37.3572 41.7531C37.5203 41.9096 37.7376 41.997 37.9636 41.997C38.1896 41.997 38.4069 41.9096 38.57 41.7531C38.7331 41.5966 38.8294 41.3831 38.8387 41.1573V37.4255C41.2359 37.4493 48.1605 37.8293 51.7394 41.1573C53.1362 42.4561 53.8457 44.0265 53.9095 45.9577C53.9575 46.9871 53.7606 48.0132 53.3351 48.9517H53.3306ZM61.842 34.6676C61.5897 35.5146 61.4661 36.3948 61.4754 37.2786V44.2477C60.1869 44.3605 57.7422 44.7836 55.6596 46.3258C55.6596 46.1774 55.6596 46.0394 55.6596 45.8939C55.6409 44.7569 55.3892 43.6358 54.9199 42.5999C54.4506 41.5641 53.7738 40.6356 52.9313 39.8718C48.8998 36.1223 41.5729 35.6992 38.9144 35.6725V25.8029C40.4472 25.3437 41.8984 24.8563 43.268 24.3408C43.268 24.4031 43.2769 24.4655 43.2769 24.5293V33.584C43.2721 33.7019 43.2911 33.8196 43.3329 33.93C43.3747 34.0404 43.4384 34.1412 43.5201 34.2264C43.6018 34.3116 43.6999 34.3794 43.8085 34.4256C43.9171 34.4719 44.0339 34.4958 44.152 34.4958C44.27 34.4958 44.3868 34.4719 44.4954 34.4256C44.604 34.3794 44.7021 34.3116 44.7839 34.2264C44.8656 34.1412 44.9293 34.0404 44.9711 33.93C45.0128 33.8196 45.0319 33.7019 45.027 33.584V23.6476C46.6361 22.9841 48.1175 22.2864 49.4668 21.5694V33.5929C49.4668 33.8252 49.559 34.0479 49.7233 34.2122C49.8875 34.3764 50.1103 34.4687 50.3426 34.4687C50.5748 34.4687 50.7976 34.3764 50.9618 34.2122C51.1261 34.0479 51.2183 33.8252 51.2183 33.5929V20.5808C52.6195 19.7541 53.9536 18.8185 55.2083 17.7828C55.4987 18.1675 55.6551 18.6368 55.6537 19.1187V33.2203C55.6537 33.4526 55.7459 33.6753 55.9102 33.8396C56.0744 34.0038 56.2972 34.0961 56.5294 34.0961C56.7617 34.0961 56.9845 34.0038 57.1487 33.8396C57.3129 33.6753 57.4052 33.4526 57.4052 33.2203V22.3695C57.3815 22.0635 57.4212 21.7559 57.522 21.466C57.6228 21.1761 57.7824 20.9102 57.9909 20.6849C58.1993 20.4597 58.4521 20.2799 58.7333 20.157C59.0146 20.0341 59.3182 19.9706 59.6251 19.9706C59.932 19.9706 60.2356 20.0341 60.5169 20.157C60.7981 20.2799 61.0509 20.4597 61.2593 20.6849C61.4678 20.9102 61.6274 21.1761 61.7282 21.466C61.829 21.7559 61.8687 22.0635 61.845 22.3695L61.842 34.6676Z" stroke="url(#paint0_linear_94_413)" stroke-width="2" mask="url(#path-1-inside-1_94_413)"/>
<path d="M26.3624 50.3841C26.4439 50.4656 26.5407 50.5302 26.6471 50.5743C26.7536 50.6183 26.8677 50.641 26.9829 50.6409C27.0976 50.6414 27.2113 50.6191 27.3173 50.5753C27.4233 50.5315 27.5195 50.467 27.6004 50.3856C27.6816 50.3044 27.746 50.2081 27.79 50.102C27.8339 49.9959 27.8565 49.8822 27.8565 49.7674C27.8565 49.6526 27.8339 49.5389 27.79 49.4328C27.746 49.3267 27.6816 49.2303 27.6004 49.1491L26.3624 50.3841ZM25.3885 48.6956L25.3881 48.6953C25.318 48.6249 25.2786 48.5294 25.2788 48.43C25.279 48.3306 25.3187 48.2353 25.3891 48.1652C25.4595 48.095 25.5549 48.0557 25.6543 48.0558C25.7537 48.056 25.8488 48.0956 25.919 48.1659C25.9191 48.166 25.9191 48.166 25.9192 48.1661L27.2457 49.5015L27.2457 49.5015L27.2469 49.5027C27.2816 49.5375 27.3092 49.5787 27.328 49.6241C27.3468 49.6696 27.3565 49.7182 27.3565 49.7674C27.3565 49.8165 27.3468 49.8652 27.328 49.9106C27.3092 49.956 27.2816 49.9973 27.2469 50.0321L27.2458 50.0331C27.2116 50.0675 27.171 50.0947 27.1263 50.1132C27.0815 50.1317 27.0335 50.1412 26.9851 50.1409L26.9827 50.1409C26.9332 50.141 26.8841 50.1312 26.8383 50.1123C26.7928 50.0934 26.7513 50.0658 26.7163 50.0309C26.7162 50.0308 26.7161 50.0306 26.7159 50.0305L25.3885 48.6956Z" stroke="url(#paint1_linear_94_413)"/>
<path d="M31.882 47.0422L31.8871 47.0476L31.8923 47.0528L33.2254 48.3799C33.2954 48.451 33.3347 48.5468 33.3347 48.6467C33.3347 48.7462 33.2956 48.8418 33.226 48.9128C33.1549 48.9825 33.0594 49.0215 32.9598 49.0215C32.8596 49.0215 32.7635 48.982 32.6923 48.9115C32.6922 48.9115 32.6922 48.9114 32.6921 48.9113L31.3567 47.5834L31.3568 47.5833L31.3483 47.5752C31.3118 47.5405 31.2825 47.4989 31.2623 47.4527C31.2422 47.4065 31.2314 47.3568 31.2308 47.3064C31.2301 47.256 31.2396 47.206 31.2586 47.1593C31.2776 47.1126 31.3057 47.0702 31.3414 47.0346C31.3771 46.999 31.4195 46.9709 31.4662 46.9519C31.5129 46.933 31.5629 46.9236 31.6133 46.9243C31.6637 46.925 31.7134 46.9358 31.7596 46.956C31.8057 46.9763 31.8473 47.0056 31.882 47.0422Z" stroke="url(#paint2_linear_94_413)"/>
<path d="M27.1223 44.0852L28.3447 42.856L28.44 42.7658C28.5114 42.6982 28.6063 42.6611 28.7046 42.6625C28.8029 42.6639 28.8968 42.7036 28.9663 42.7731C29.0358 42.8427 29.0753 42.9366 29.0766 43.0349C29.0778 43.1315 29.042 43.2248 28.9766 43.2956L27.6536 44.6186C27.583 44.6892 27.4873 44.7288 27.3875 44.7288C27.2876 44.7288 27.1919 44.6892 27.1213 44.6186C27.0507 44.548 27.011 44.4522 27.011 44.3524C27.011 44.2526 27.0507 44.1568 27.1213 44.0862L27.1213 44.0862L27.1223 44.0852Z" stroke="url(#paint3_linear_94_413)"/>
<path d="M36.0087 50.9124L36.0132 50.9079C36.0822 50.8503 36.1698 50.8191 36.2602 50.8206C36.3579 50.8222 36.4511 50.8618 36.5201 50.9309C36.5891 51.0001 36.6284 51.0934 36.6298 51.1911C36.6311 51.2866 36.596 51.379 36.5317 51.4496L35.2026 52.7713L35.2023 52.7716C35.1319 52.8418 35.0365 52.8811 34.937 52.8809C34.8376 52.8807 34.7424 52.8411 34.6722 52.7707C34.602 52.7002 34.5627 52.6048 34.5629 52.5054C34.563 52.406 34.6027 52.3108 34.673 52.2407C34.673 52.2406 34.6731 52.2406 34.6731 52.2405L36.0087 50.9124Z" stroke="url(#paint4_linear_94_413)"/>
<defs>
<linearGradient id="paint0_linear_94_413" x1="38.0044" y1="70.0116" x2="38.0044" y2="5.95935" gradientUnits="userSpaceOnUse">
<stop stop-color="#FFE59A"/>
<stop offset="1" stop-color="#FFFFD5"/>
</linearGradient>
<linearGradient id="paint1_linear_94_413" x1="26.3177" y1="50.6409" x2="26.3177" y2="47.5558" gradientUnits="userSpaceOnUse">
<stop stop-color="#FFE59A"/>
<stop offset="1" stop-color="#FFFFD5"/>
</linearGradient>
<linearGradient id="paint2_linear_94_413" x1="32.2827" y1="49.5215" x2="32.2827" y2="46.4243" gradientUnits="userSpaceOnUse">
<stop stop-color="#FFE59A"/>
<stop offset="1" stop-color="#FFFFD5"/>
</linearGradient>
<linearGradient id="paint3_linear_94_413" x1="28.0438" y1="45.2288" x2="28.0438" y2="42.1625" gradientUnits="userSpaceOnUse">
<stop stop-color="#FFE59A"/>
<stop offset="1" stop-color="#FFFFD5"/>
</linearGradient>
<linearGradient id="paint4_linear_94_413" x1="35.5964" y1="53.3809" x2="35.5964" y2="50.3206" gradientUnits="userSpaceOnUse">
<stop stop-color="#FFE59A"/>
<stop offset="1" stop-color="#FFFFD5"/>
</linearGradient>
</defs>
</svg>
